<?xml version="1.0" encoding="utf-8" standalone="no"?>
<!DOCTYPE svg PUBLIC "-//W3C//DTD SVG 1.1//EN"
  "http://www.w3.org/Graphics/SVG/1.1/DTD/svg11.dtd">
<svg xmlns:xlink="http://www.w3.org/1999/xlink" width="720pt" height="576pt" viewBox="0 0 720 576" xmlns="http://www.w3.org/2000/svg" version="1.1">
 <metadata>
  <rdf:RDF xmlns:dc="http://purl.org/dc/elements/1.1/" xmlns:cc="http://creativecommons.org/ns#" xmlns:rdf="http://www.w3.org/1999/02/22-rdf-syntax-ns#">
   <cc:Work>
    <dc:type rdf:resource="http://purl.org/dc/dcmitype/StillImage"/>
    <dc:date>2025-12-01T01:24:44.559535</dc:date>
    <dc:format>image/svg+xml</dc:format>
    <dc:creator>
     <cc:Agent>
      <dc:title>Matplotlib v3.10.0, https://matplotlib.org/</dc:title>
     </cc:Agent>
    </dc:creator>
   </cc:Work>
  </rdf:RDF>
 </metadata>
 <defs>
  <style type="text/css">*{stroke-linejoin: round; stroke-linecap: butt}</style>
 </defs>
 <g id="figure_1">
  <g id="patch_1">
   <path d="M 0 576 
L 720 576 
L 720 0 
L 0 0 
z
" style="fill: #ffffff"/>
  </g>
  <g id="axes_1">
   <g id="patch_2">
    <path d="M 47.72 251.44 
L 352.72985 251.44 
L 352.72985 26.88 
L 47.72 26.88 
z
" style="fill: #ffffff"/>
   </g>
   <g id="matplotlib.axis_1">
    <g id="xtick_1">
     <g id="line2d_1">
      <path d="M 61.584084 251.44 
L 61.584084 26.88 
" clip-path="url(#p936fd7bc5f)" style="fill: none; stroke: #b0b0b0; stroke-width: 0.8; stroke-linecap: square"/>
     </g>
     <g id="line2d_2">
      <defs>
       <path id="m137116e513" d="M 0 0 
L 0 3.5 
" style="stroke: #000000; stroke-width: 0.8"/>
      </defs>
      <g>
       <use xlink:href="#m137116e513" x="61.584084" y="251.44" style="stroke: #000000; stroke-width: 0.8"/>
      </g>
     </g>
     <g id="text_1">
      <!-- 0 -->
      <g transform="translate(58.402834 266.038437) scale(0.1 -0.1)">
       <defs>
        <path id="DejaVuSans-30" d="M 2034 4250 
Q 1547 4250 1301 3770 
Q 1056 3291 1056 2328 
Q 1056 1369 1301 889 
Q 1547 409 2034 409 
Q 2525 409 2770 889 
Q 3016 1369 3016 2328 
Q 3016 3291 2770 3770 
Q 2525 4250 2034 4250 
z
M 2034 4750 
Q 2819 4750 3233 4129 
Q 3647 3509 3647 2328 
Q 3647 1150 3233 529 
Q 2819 -91 2034 -91 
Q 1250 -91 836 529 
Q 422 1150 422 2328 
Q 422 3509 836 4129 
Q 1250 4750 2034 4750 
z
" transform="scale(0.015625)"/>
       </defs>
       <use xlink:href="#DejaVuSans-30"/>
      </g>
     </g>
    </g>
    <g id="xtick_2">
     <g id="line2d_3">
      <path d="M 117.600585 251.44 
L 117.600585 26.88 
" clip-path="url(#p936fd7bc5f)" style="fill: none; stroke: #b0b0b0; stroke-width: 0.8; stroke-linecap: square"/>
     </g>
     <g id="line2d_4">
      <g>
       <use xlink:href="#m137116e513" x="117.600585" y="251.44" style="stroke: #000000; stroke-width: 0.8"/>
      </g>
     </g>
     <g id="text_2">
      <!-- 20 -->
      <g transform="translate(111.238085 266.038437) scale(0.1 -0.1)">
       <defs>
        <path id="DejaVuSans-32" d="M 1228 531 
L 3431 531 
L 3431 0 
L 469 0 
L 469 531 
Q 828 903 1448 1529 
Q 2069 2156 2228 2338 
Q 2531 2678 2651 2914 
Q 2772 3150 2772 3378 
Q 2772 3750 2511 3984 
Q 2250 4219 1831 4219 
Q 1534 4219 1204 4116 
Q 875 4013 500 3803 
L 500 4441 
Q 881 4594 1212 4672 
Q 1544 4750 1819 4750 
Q 2544 4750 2975 4387 
Q 3406 4025 3406 3419 
Q 3406 3131 3298 2873 
Q 3191 2616 2906 2266 
Q 2828 2175 2409 1742 
Q 1991 1309 1228 531 
z
" transform="scale(0.015625)"/>
       </defs>
       <use xlink:href="#DejaVuSans-32"/>
       <use xlink:href="#DejaVuSans-30" transform="translate(63.623047 0)"/>
      </g>
     </g>
    </g>
    <g id="xtick_3">
     <g id="line2d_5">
      <path d="M 173.617087 251.44 
L 173.617087 26.88 
" clip-path="url(#p936fd7bc5f)" style="fill: none; stroke: #b0b0b0; stroke-width: 0.8; stroke-linecap: square"/>
     </g>
     <g id="line2d_6">
      <g>
       <use xlink:href="#m137116e513" x="173.617087" y="251.44" style="stroke: #000000; stroke-width: 0.8"/>
      </g>
     </g>
     <g id="text_3">
      <!-- 40 -->
      <g transform="translate(167.254587 266.038437) scale(0.1 -0.1)">
       <defs>
        <path id="DejaVuSans-34" d="M 2419 4116 
L 825 1625 
L 2419 1625 
L 2419 4116 
z
M 2253 4666 
L 3047 4666 
L 3047 1625 
L 3713 1625 
L 3713 1100 
L 3047 1100 
L 3047 0 
L 2419 0 
L 2419 1100 
L 313 1100 
L 313 1709 
L 2253 4666 
z
" transform="scale(0.015625)"/>
       </defs>
       <use xlink:href="#DejaVuSans-34"/>
       <use xlink:href="#DejaVuSans-30" transform="translate(63.623047 0)"/>
      </g>
     </g>
    </g>
    <g id="xtick_4">
     <g id="line2d_7">
      <path d="M 229.633588 251.44 
L 229.633588 26.88 
" clip-path="url(#p936fd7bc5f)" style="fill: none; stroke: #b0b0b0; stroke-width: 0.8; stroke-linecap: square"/>
     </g>
     <g id="line2d_8">
      <g>
       <use xlink:href="#m137116e513" x="229.633588" y="251.44" style="stroke: #000000; stroke-width: 0.8"/>
      </g>
     </g>
     <g id="text_4">
      <!-- 60 -->
      <g transform="translate(223.271088 266.038437) scale(0.1 -0.1)">
       <defs>
        <path id="DejaVuSans-36" d="M 2113 2584 
Q 1688 2584 1439 2293 
Q 1191 2003 1191 1497 
Q 1191 994 1439 701 
Q 1688 409 2113 409 
Q 2538 409 2786 701 
Q 3034 994 3034 1497 
Q 3034 2003 2786 2293 
Q 2538 2584 2113 2584 
z
M 3366 4563 
L 3366 3988 
Q 3128 4100 2886 4159 
Q 2644 4219 2406 4219 
Q 1781 4219 1451 3797 
Q 1122 3375 1075 2522 
Q 1259 2794 1537 2939 
Q 1816 3084 2150 3084 
Q 2853 3084 3261 2657 
Q 3669 2231 3669 1497 
Q 3669 778 3244 343 
Q 2819 -91 2113 -91 
Q 1303 -91 875 529 
Q 447 1150 447 2328 
Q 447 3434 972 4092 
Q 1497 4750 2381 4750 
Q 2619 4750 2861 4703 
Q 3103 4656 3366 4563 
z
" transform="scale(0.015625)"/>
       </defs>
       <use xlink:href="#DejaVuSans-36"/>
       <use xlink:href="#DejaVuSans-30" transform="translate(63.623047 0)"/>
      </g>
     </g>
    </g>
    <g id="xtick_5">
     <g id="line2d_9">
      <path d="M 285.650089 251.44 
L 285.650089 26.88 
" clip-path="url(#p936fd7bc5f)" style="fill: none; stroke: #b0b0b0; stroke-width: 0.8; stroke-linecap: square"/>
     </g>
     <g id="line2d_10">
      <g>
       <use xlink:href="#m137116e513" x="285.650089" y="251.44" style="stroke: #000000; stroke-width: 0.8"/>
      </g>
     </g>
     <g id="text_5">
      <!-- 80 -->
      <g transform="translate(279.287589 266.038437) scale(0.1 -0.1)">
       <defs>
        <path id="DejaVuSans-38" d="M 2034 2216 
Q 1584 2216 1326 1975 
Q 1069 1734 1069 1313 
Q 1069 891 1326 650 
Q 1584 409 2034 409 
Q 2484 409 2743 651 
Q 3003 894 3003 1313 
Q 3003 1734 2745 1975 
Q 2488 2216 2034 2216 
z
M 1403 2484 
Q 997 2584 770 2862 
Q 544 3141 544 3541 
Q 544 4100 942 4425 
Q 1341 4750 2034 4750 
Q 2731 4750 3128 4425 
Q 3525 4100 3525 3541 
Q 3525 3141 3298 2862 
Q 3072 2584 2669 2484 
Q 3125 2378 3379 2068 
Q 3634 1759 3634 1313 
Q 3634 634 3220 271 
Q 2806 -91 2034 -91 
Q 1263 -91 848 271 
Q 434 634 434 1313 
Q 434 1759 690 2068 
Q 947 2378 1403 2484 
z
M 1172 3481 
Q 1172 3119 1398 2916 
Q 1625 2713 2034 2713 
Q 2441 2713 2670 2916 
Q 2900 3119 2900 3481 
Q 2900 3844 2670 4047 
Q 2441 4250 2034 4250 
Q 1625 4250 1398 4047 
Q 1172 3844 1172 3481 
z
" transform="scale(0.015625)"/>
       </defs>
       <use xlink:href="#DejaVuSans-38"/>
       <use xlink:href="#DejaVuSans-30" transform="translate(63.623047 0)"/>
      </g>
     </g>
    </g>
    <g id="xtick_6">
     <g id="line2d_11">
      <path d="M 341.666591 251.44 
L 341.666591 26.88 
" clip-path="url(#p936fd7bc5f)" style="fill: none; stroke: #b0b0b0; stroke-width: 0.8; stroke-linecap: square"/>
     </g>
     <g id="line2d_12">
      <g>
       <use xlink:href="#m137116e513" x="341.666591" y="251.44" style="stroke: #000000; stroke-width: 0.8"/>
      </g>
     </g>
     <g id="text_6">
      <!-- 100 -->
      <g transform="translate(332.122841 266.038437) scale(0.1 -0.1)">
       <defs>
        <path id="DejaVuSans-31" d="M 794 531 
L 1825 531 
L 1825 4091 
L 703 3866 
L 703 4441 
L 1819 4666 
L 2450 4666 
L 2450 531 
L 3481 531 
L 3481 0 
L 794 0 
L 794 531 
z
" transform="scale(0.015625)"/>
       </defs>
       <use xlink:href="#DejaVuSans-31"/>
       <use xlink:href="#DejaVuSans-30" transform="translate(63.623047 0)"/>
       <use xlink:href="#DejaVuSans-30" transform="translate(127.246094 0)"/>
      </g>
     </g>
    </g>
    <g id="text_7">
     <!-- Epochs -->
     <g transform="translate(182.3093 279.716563) scale(0.1 -0.1)">
      <defs>
       <path id="DejaVuSans-45" d="M 628 4666 
L 3578 4666 
L 3578 4134 
L 1259 4134 
L 1259 2753 
L 3481 2753 
L 3481 2222 
L 1259 2222 
L 1259 531 
L 3634 531 
L 3634 0 
L 628 0 
L 628 4666 
z
" transform="scale(0.015625)"/>
       <path id="DejaVuSans-70" d="M 1159 525 
L 1159 -1331 
L 581 -1331 
L 581 3500 
L 1159 3500 
L 1159 2969 
Q 1341 3281 1617 3432 
Q 1894 3584 2278 3584 
Q 2916 3584 3314 3078 
Q 3713 2572 3713 1747 
Q 3713 922 3314 415 
Q 2916 -91 2278 -91 
Q 1894 -91 1617 61 
Q 1341 213 1159 525 
z
M 3116 1747 
Q 3116 2381 2855 2742 
Q 2594 3103 2138 3103 
Q 1681 3103 1420 2742 
Q 1159 2381 1159 1747 
Q 1159 1113 1420 752 
Q 1681 391 2138 391 
Q 2594 391 2855 752 
Q 3116 1113 3116 1747 
z
" transform="scale(0.015625)"/>
       <path id="DejaVuSans-6f" d="M 1959 3097 
Q 1497 3097 1228 2736 
Q 959 2375 959 1747 
Q 959 1119 1226 758 
Q 1494 397 1959 397 
Q 2419 397 2687 759 
Q 2956 1122 2956 1747 
Q 2956 2369 2687 2733 
Q 2419 3097 1959 3097 
z
M 1959 3584 
Q 2709 3584 3137 3096 
Q 3566 2609 3566 1747 
Q 3566 888 3137 398 
Q 2709 -91 1959 -91 
Q 1206 -91 779 398 
Q 353 888 353 1747 
Q 353 2609 779 3096 
Q 1206 3584 1959 3584 
z
" transform="scale(0.015625)"/>
       <path id="DejaVuSans-63" d="M 3122 3366 
L 3122 2828 
Q 2878 2963 2633 3030 
Q 2388 3097 2138 3097 
Q 1578 3097 1268 2742 
Q 959 2388 959 1747 
Q 959 1106 1268 751 
Q 1578 397 2138 397 
Q 2388 397 2633 464 
Q 2878 531 3122 666 
L 3122 134 
Q 2881 22 2623 -34 
Q 2366 -91 2075 -91 
Q 1284 -91 818 406 
Q 353 903 353 1747 
Q 353 2603 823 3093 
Q 1294 3584 2113 3584 
Q 2378 3584 2631 3529 
Q 2884 3475 3122 3366 
z
" transform="scale(0.015625)"/>
       <path id="DejaVuSans-68" d="M 3513 2113 
L 3513 0 
L 2938 0 
L 2938 2094 
Q 2938 2591 2744 2837 
Q 2550 3084 2163 3084 
Q 1697 3084 1428 2787 
Q 1159 2491 1159 1978 
L 1159 0 
L 581 0 
L 581 4863 
L 1159 4863 
L 1159 2956 
Q 1366 3272 1645 3428 
Q 1925 3584 2291 3584 
Q 2894 3584 3203 3211 
Q 3513 2838 3513 2113 
z
" transform="scale(0.015625)"/>
       <path id="DejaVuSans-73" d="M 2834 3397 
L 2834 2853 
Q 2591 2978 2328 3040 
Q 2066 3103 1784 3103 
Q 1356 3103 1142 2972 
Q 928 2841 928 2578 
Q 928 2378 1081 2264 
Q 1234 2150 1697 2047 
L 1894 2003 
Q 2506 1872 2764 1633 
Q 3022 1394 3022 966 
Q 3022 478 2636 193 
Q 2250 -91 1575 -91 
Q 1294 -91 989 -36 
Q 684 19 347 128 
L 347 722 
Q 666 556 975 473 
Q 1284 391 1588 391 
Q 1994 391 2212 530 
Q 2431 669 2431 922 
Q 2431 1156 2273 1281 
Q 2116 1406 1581 1522 
L 1381 1569 
Q 847 1681 609 1914 
Q 372 2147 372 2553 
Q 372 3047 722 3315 
Q 1072 3584 1716 3584 
Q 2034 3584 2315 3537 
Q 2597 3491 2834 3397 
z
" transform="scale(0.015625)"/>
      </defs>
      <use xlink:href="#DejaVuSans-45"/>
      <use xlink:href="#DejaVuSans-70" transform="translate(63.183594 0)"/>
      <use xlink:href="#DejaVuSans-6f" transform="translate(126.660156 0)"/>
      <use xlink:href="#DejaVuSans-63" transform="translate(187.841797 0)"/>
      <use xlink:href="#DejaVuSans-68" transform="translate(242.822266 0)"/>
      <use xlink:href="#DejaVuSans-73" transform="translate(306.201172 0)"/>
     </g>
    </g>
   </g>
   <g id="matplotlib.axis_2">
    <g id="ytick_1">
     <g id="line2d_13">
      <path d="M 47.72 244.509709 
L 352.72985 244.509709 
" clip-path="url(#p936fd7bc5f)" style="fill: none; stroke: #b0b0b0; stroke-width: 0.8; stroke-linecap: square"/>
     </g>
     <g id="line2d_14">
      <defs>
       <path id="m803b99ddc7" d="M 0 0 
L -3.5 0 
" style="stroke: #000000; stroke-width: 0.8"/>
      </defs>
      <g>
       <use xlink:href="#m803b99ddc7" x="47.72" y="244.509709" style="stroke: #000000; stroke-width: 0.8"/>
      </g>
     </g>
     <g id="text_8">
      <!-- 15 -->
      <g transform="translate(27.995 248.308928) scale(0.1 -0.1)">
       <defs>
        <path id="DejaVuSans-35" d="M 691 4666 
L 3169 4666 
L 3169 4134 
L 1269 4134 
L 1269 2991 
Q 1406 3038 1543 3061 
Q 1681 3084 1819 3084 
Q 2600 3084 3056 2656 
Q 3513 2228 3513 1497 
Q 3513 744 3044 326 
Q 2575 -91 1722 -91 
Q 1428 -91 1123 -41 
Q 819 9 494 109 
L 494 744 
Q 775 591 1075 516 
Q 1375 441 1709 441 
Q 2250 441 2565 725 
Q 2881 1009 2881 1497 
Q 2881 1984 2565 2268 
Q 2250 2553 1709 2553 
Q 1456 2553 1204 2497 
Q 953 2441 691 2322 
L 691 4666 
z
" transform="scale(0.015625)"/>
       </defs>
       <use xlink:href="#DejaVuSans-31"/>
       <use xlink:href="#DejaVuSans-35" transform="translate(63.623047 0)"/>
      </g>
     </g>
    </g>
    <g id="ytick_2">
     <g id="line2d_15">
      <path d="M 47.72 213.825575 
L 352.72985 213.825575 
" clip-path="url(#p936fd7bc5f)" style="fill: none; stroke: #b0b0b0; stroke-width: 0.8; stroke-linecap: square"/>
     </g>
     <g id="line2d_16">
      <g>
       <use xlink:href="#m803b99ddc7" x="47.72" y="213.825575" style="stroke: #000000; stroke-width: 0.8"/>
      </g>
     </g>
     <g id="text_9">
      <!-- 20 -->
      <g transform="translate(27.995 217.624794) scale(0.1 -0.1)">
       <use xlink:href="#DejaVuSans-32"/>
       <use xlink:href="#DejaVuSans-30" transform="translate(63.623047 0)"/>
      </g>
     </g>
    </g>
    <g id="ytick_3">
     <g id="line2d_17">
      <path d="M 47.72 183.141441 
L 352.72985 183.141441 
" clip-path="url(#p936fd7bc5f)" style="fill: none; stroke: #b0b0b0; stroke-width: 0.8; stroke-linecap: square"/>
     </g>
     <g id="line2d_18">
      <g>
       <use xlink:href="#m803b99ddc7" x="47.72" y="183.141441" style="stroke: #000000; stroke-width: 0.8"/>
      </g>
     </g>
     <g id="text_10">
      <!-- 25 -->
      <g transform="translate(27.995 186.940659) scale(0.1 -0.1)">
       <use xlink:href="#DejaVuSans-32"/>
       <use xlink:href="#DejaVuSans-35" transform="translate(63.623047 0)"/>
      </g>
     </g>
    </g>
    <g id="ytick_4">
     <g id="line2d_19">
      <path d="M 47.72 152.457306 
L 352.72985 152.457306 
" clip-path="url(#p936fd7bc5f)" style="fill: none; stroke: #b0b0b0; stroke-width: 0.8; stroke-linecap: square"/>
     </g>
     <g id="line2d_20">
      <g>
       <use xlink:href="#m803b99ddc7" x="47.72" y="152.457306" style="stroke: #000000; stroke-width: 0.8"/>
      </g>
     </g>
     <g id="text_11">
      <!-- 30 -->
      <g transform="translate(27.995 156.256525) scale(0.1 -0.1)">
       <defs>
        <path id="DejaVuSans-33" d="M 2597 2516 
Q 3050 2419 3304 2112 
Q 3559 1806 3559 1356 
Q 3559 666 3084 287 
Q 2609 -91 1734 -91 
Q 1441 -91 1130 -33 
Q 819 25 488 141 
L 488 750 
Q 750 597 1062 519 
Q 1375 441 1716 441 
Q 2309 441 2620 675 
Q 2931 909 2931 1356 
Q 2931 1769 2642 2001 
Q 2353 2234 1838 2234 
L 1294 2234 
L 1294 2753 
L 1863 2753 
Q 2328 2753 2575 2939 
Q 2822 3125 2822 3475 
Q 2822 3834 2567 4026 
Q 2313 4219 1838 4219 
Q 1578 4219 1281 4162 
Q 984 4106 628 3988 
L 628 4550 
Q 988 4650 1302 4700 
Q 1616 4750 1894 4750 
Q 2613 4750 3031 4423 
Q 3450 4097 3450 3541 
Q 3450 3153 3228 2886 
Q 3006 2619 2597 2516 
z
" transform="scale(0.015625)"/>
       </defs>
       <use xlink:href="#DejaVuSans-33"/>
       <use xlink:href="#DejaVuSans-30" transform="translate(63.623047 0)"/>
      </g>
     </g>
    </g>
    <g id="ytick_5">
     <g id="line2d_21">
      <path d="M 47.72 121.773172 
L 352.72985 121.773172 
" clip-path="url(#p936fd7bc5f)" style="fill: none; stroke: #b0b0b0; stroke-width: 0.8; stroke-linecap: square"/>
     </g>
     <g id="line2d_22">
      <g>
       <use xlink:href="#m803b99ddc7" x="47.72" y="121.773172" style="stroke: #000000; stroke-width: 0.8"/>
      </g>
     </g>
     <g id="text_12">
      <!-- 35 -->
      <g transform="translate(27.995 125.572391) scale(0.1 -0.1)">
       <use xlink:href="#DejaVuSans-33"/>
       <use xlink:href="#DejaVuSans-35" transform="translate(63.623047 0)"/>
      </g>
     </g>
    </g>
    <g id="ytick_6">
     <g id="line2d_23">
      <path d="M 47.72 91.089038 
L 352.72985 91.089038 
" clip-path="url(#p936fd7bc5f)" style="fill: none; stroke: #b0b0b0; stroke-width: 0.8; stroke-linecap: square"/>
     </g>
     <g id="line2d_24">
      <g>
       <use xlink:href="#m803b99ddc7" x="47.72" y="91.089038" style="stroke: #000000; stroke-width: 0.8"/>
      </g>
     </g>
     <g id="text_13">
      <!-- 40 -->
      <g transform="translate(27.995 94.888257) scale(0.1 -0.1)">
       <use xlink:href="#DejaVuSans-34"/>
       <use xlink:href="#DejaVuSans-30" transform="translate(63.623047 0)"/>
      </g>
     </g>
    </g>
    <g id="ytick_7">
     <g id="line2d_25">
      <path d="M 47.72 60.404904 
L 352.72985 60.404904 
" clip-path="url(#p936fd7bc5f)" style="fill: none; stroke: #b0b0b0; stroke-width: 0.8; stroke-linecap: square"/>
     </g>
     <g id="line2d_26">
      <g>
       <use xlink:href="#m803b99ddc7" x="47.72" y="60.404904" style="stroke: #000000; stroke-width: 0.8"/>
      </g>
     </g>
     <g id="text_14">
      <!-- 45 -->
      <g transform="translate(27.995 64.204123) scale(0.1 -0.1)">
       <use xlink:href="#DejaVuSans-34"/>
       <use xlink:href="#DejaVuSans-35" transform="translate(63.623047 0)"/>
      </g>
     </g>
    </g>
    <g id="ytick_8">
     <g id="line2d_27">
      <path d="M 47.72 29.72077 
L 352.72985 29.72077 
" clip-path="url(#p936fd7bc5f)" style="fill: none; stroke: #b0b0b0; stroke-width: 0.8; stroke-linecap: square"/>
     </g>
     <g id="line2d_28">
      <g>
       <use xlink:href="#m803b99ddc7" x="47.72" y="29.72077" style="stroke: #000000; stroke-width: 0.8"/>
      </g>
     </g>
     <g id="text_15">
      <!-- 50 -->
      <g transform="translate(27.995 33.519989) scale(0.1 -0.1)">
       <use xlink:href="#DejaVuSans-35"/>
       <use xlink:href="#DejaVuSans-30" transform="translate(63.623047 0)"/>
      </g>
     </g>
    </g>
    <g id="text_16">
     <!-- Loss -->
     <g transform="translate(21.915313 150.127187) rotate(-90) scale(0.1 -0.1)">
      <defs>
       <path id="DejaVuSans-4c" d="M 628 4666 
L 1259 4666 
L 1259 531 
L 3531 531 
L 3531 0 
L 628 0 
L 628 4666 
z
" transform="scale(0.015625)"/>
      </defs>
      <use xlink:href="#DejaVuSans-4c"/>
      <use xlink:href="#DejaVuSans-6f" transform="translate(53.962891 0)"/>
      <use xlink:href="#DejaVuSans-73" transform="translate(115.144531 0)"/>
      <use xlink:href="#DejaVuSans-73" transform="translate(167.244141 0)"/>
     </g>
    </g>
   </g>
   <g id="line2d_29">
    <path d="M 61.584084 37.087273 
L 64.384909 97.057938 
L 67.185734 156.894435 
L 69.986559 178.759988 
L 72.787384 186.881198 
L 75.588209 218.667373 
L 78.389034 225.905217 
L 81.18986 212.21424 
L 83.990685 204.947927 
L 86.79151 220.015452 
L 89.592335 225.97005 
L 92.39316 208.101056 
L 95.193985 219.44545 
L 97.99481 224.110131 
L 100.795635 225.143325 
L 103.59646 210.21675 
L 106.397285 226.547746 
L 109.19811 198.903319 
L 111.998935 200.819936 
L 114.79976 214.462682 
L 117.600585 206.575458 
L 120.40141 226.936713 
L 123.202236 188.293251 
L 126.003061 219.27606 
L 128.803886 217.609952 
L 131.604711 223.849576 
L 134.405536 223.823637 
L 137.206361 206.315588 
L 140.007186 201.332314 
L 142.808011 203.494471 
L 145.608836 178.520783 
L 148.409661 204.920126 
L 151.210486 215.262448 
L 154.011311 222.41543 
L 156.812136 212.51142 
L 159.612961 197.294848 
L 162.413786 229.549628 
L 165.214612 202.00345 
L 168.015437 188.501431 
L 170.816262 215.068469 
L 173.617087 229.258504 
L 176.417912 217.679694 
L 179.218737 228.937222 
L 182.019562 216.956926 
L 184.820387 230.034644 
L 187.621212 213.435196 
L 190.422037 219.787579 
L 193.222862 218.446923 
L 196.023687 216.054694 
L 198.824512 182.880731 
L 201.625337 227.693206 
L 204.426162 194.28291 
L 207.226988 222.998895 
L 210.027813 222.787358 
L 212.828638 214.269943 
L 215.629463 227.228604 
L 218.430288 217.406158 
L 221.231113 198.264951 
L 224.031938 218.692607 
L 226.832763 205.607704 
L 229.633588 194.552562 
L 232.434413 222.922008 
L 235.235238 179.881684 
L 238.036063 191.303077 
L 240.836888 219.953286 
L 243.637713 218.534426 
L 246.438538 220.257425 
L 249.239364 222.816371 
L 252.040189 220.891323 
L 254.841014 210.487415 
L 257.641839 208.305384 
L 260.442664 221.628971 
L 263.243489 220.451186 
L 266.044314 214.398111 
L 268.845139 214.653173 
L 271.645964 209.235804 
L 274.446789 202.677363 
L 277.247614 202.052222 
L 280.048439 224.902947 
L 282.849264 203.818546 
L 285.650089 217.808493 
L 288.450914 207.305378 
L 291.25174 206.698092 
L 294.052565 209.635169 
L 296.85339 208.837712 
L 299.654215 197.697407 
L 302.45504 213.53646 
L 305.255865 197.647324 
L 308.05669 222.49448 
L 310.857515 222.699114 
L 313.65834 225.660572 
L 316.459165 214.11979 
L 319.25999 226.479413 
L 322.060815 220.450477 
L 324.86164 200.113383 
L 327.662465 205.503608 
L 330.46329 211.499485 
L 333.264116 208.263923 
L 336.064941 227.847285 
L 338.865766 228.869202 
" clip-path="url(#p936fd7bc5f)" style="fill: none; stroke: #1f77b4; stroke-width: 1.5; stroke-linecap: square"/>
   </g>
   <g id="line2d_30">
    <path d="M 61.584084 47.29919 
L 64.384909 103.530004 
L 67.185734 166.097746 
L 69.986559 185.198533 
L 72.787384 195.924443 
L 75.588209 226.0356 
L 78.389034 233.244787 
L 81.18986 221.772468 
L 83.990685 211.787441 
L 86.79151 227.053039 
L 89.592335 233.748534 
L 92.39316 218.358784 
L 95.193985 228.218809 
L 97.99481 237.300862 
L 100.795635 233.988152 
L 103.59646 217.871152 
L 106.397285 238.385933 
L 109.19811 211.840499 
L 111.998935 213.576345 
L 114.79976 224.086299 
L 117.600585 218.37966 
L 120.40141 238.043686 
L 123.202236 197.921006 
L 126.003061 229.630934 
L 128.803886 228.132969 
L 131.604711 234.641056 
L 134.405536 234.791231 
L 137.206361 217.582027 
L 140.007186 212.678065 
L 142.808011 213.822177 
L 145.608836 191.231403 
L 148.409661 215.673852 
L 151.210486 226.338937 
L 154.011311 233.684952 
L 156.812136 222.078025 
L 159.612961 208.174726 
L 162.413786 239.732199 
L 165.214612 211.832807 
L 168.015437 199.967585 
L 170.816262 223.873302 
L 173.617087 240.5156 
L 176.417912 228.769327 
L 179.218737 241.232727 
L 182.019562 227.523419 
L 184.820387 240.398409 
L 187.621212 224.802415 
L 190.422037 233.855111 
L 193.222862 227.586164 
L 196.023687 227.562039 
L 198.824512 197.766683 
L 201.625337 240.433924 
L 204.426162 202.696351 
L 207.226988 232.577322 
L 210.027813 236.138017 
L 212.828638 222.903806 
L 215.629463 236.186709 
L 218.430288 234.302806 
L 221.231113 210.410522 
L 224.031938 228.824041 
L 226.832763 216.736865 
L 229.633588 203.249361 
L 232.434413 233.467578 
L 235.235238 191.584517 
L 238.036063 203.407599 
L 240.836888 231.528469 
L 243.637713 230.45929 
L 246.438538 232.022989 
L 249.239364 232.527753 
L 252.040189 231.961548 
L 254.841014 223.603266 
L 257.641839 216.895298 
L 260.442664 232.773419 
L 263.243489 230.332362 
L 266.044314 227.922395 
L 268.845139 225.359032 
L 271.645964 226.733476 
L 274.446789 217.375694 
L 277.247614 215.399526 
L 280.048439 236.823706 
L 282.849264 217.315681 
L 285.650089 230.194732 
L 288.450914 220.459257 
L 291.25174 220.961795 
L 294.052565 222.410719 
L 296.85339 225.193809 
L 299.654215 211.978298 
L 302.45504 225.204468 
L 305.255865 210.814721 
L 308.05669 235.95977 
L 310.857515 232.160366 
L 313.65834 238.797322 
L 316.459165 227.190787 
L 319.25999 238.14583 
L 322.060815 234.908436 
L 324.86164 216.068351 
L 327.662465 227.410582 
L 330.46329 226.013 
L 333.264116 226.105365 
L 336.064941 240.449212 
L 338.865766 240.627413 
" clip-path="url(#p936fd7bc5f)" style="fill: none; stroke: #ff7f0e; stroke-width: 1.5; stroke-linecap: square"/>
   </g>
   <g id="patch_3">
    <path d="M 47.72 251.44 
L 47.72 26.88 
" style="fill: none; stroke: #000000; stroke-width: 0.8; stroke-linejoin: miter; stroke-linecap: square"/>
   </g>
   <g id="patch_4">
    <path d="M 352.72985 251.44 
L 352.72985 26.88 
" style="fill: none; stroke: #000000; stroke-width: 0.8; stroke-linejoin: miter; stroke-linecap: square"/>
   </g>
   <g id="patch_5">
    <path d="M 47.72 251.44 
L 352.72985 251.44 
" style="fill: none; stroke: #000000; stroke-width: 0.8; stroke-linejoin: miter; stroke-linecap: square"/>
   </g>
   <g id="patch_6">
    <path d="M 47.72 26.88 
L 352.72985 26.88 
" style="fill: none; stroke: #000000; stroke-width: 0.8; stroke-linejoin: miter; stroke-linecap: square"/>
   </g>
   <g id="text_17">
    <!-- Validation loss (g_loss i masked_l1) -->
    <g transform="translate(94.74305 20.88) scale(0.12 -0.12)">
     <defs>
      <path id="DejaVuSans-56" d="M 1831 0 
L 50 4666 
L 709 4666 
L 2188 738 
L 3669 4666 
L 4325 4666 
L 2547 0 
L 1831 0 
z
" transform="scale(0.015625)"/>
      <path id="DejaVuSans-61" d="M 2194 1759 
Q 1497 1759 1228 1600 
Q 959 1441 959 1056 
Q 959 750 1161 570 
Q 1363 391 1709 391 
Q 2188 391 2477 730 
Q 2766 1069 2766 1631 
L 2766 1759 
L 2194 1759 
z
M 3341 1997 
L 3341 0 
L 2766 0 
L 2766 531 
Q 2569 213 2275 61 
Q 1981 -91 1556 -91 
Q 1019 -91 701 211 
Q 384 513 384 1019 
Q 384 1609 779 1909 
Q 1175 2209 1959 2209 
L 2766 2209 
L 2766 2266 
Q 2766 2663 2505 2880 
Q 2244 3097 1772 3097 
Q 1472 3097 1187 3025 
Q 903 2953 641 2809 
L 641 3341 
Q 956 3463 1253 3523 
Q 1550 3584 1831 3584 
Q 2591 3584 2966 3190 
Q 3341 2797 3341 1997 
z
" transform="scale(0.015625)"/>
      <path id="DejaVuSans-6c" d="M 603 4863 
L 1178 4863 
L 1178 0 
L 603 0 
L 603 4863 
z
" transform="scale(0.015625)"/>
      <path id="DejaVuSans-69" d="M 603 3500 
L 1178 3500 
L 1178 0 
L 603 0 
L 603 3500 
z
M 603 4863 
L 1178 4863 
L 1178 4134 
L 603 4134 
L 603 4863 
z
" transform="scale(0.015625)"/>
      <path id="DejaVuSans-64" d="M 2906 2969 
L 2906 4863 
L 3481 4863 
L 3481 0 
L 2906 0 
L 2906 525 
Q 2725 213 2448 61 
Q 2172 -91 1784 -91 
Q 1150 -91 751 415 
Q 353 922 353 1747 
Q 353 2572 751 3078 
Q 1150 3584 1784 3584 
Q 2172 3584 2448 3432 
Q 2725 3281 2906 2969 
z
M 947 1747 
Q 947 1113 1208 752 
Q 1469 391 1925 391 
Q 2381 391 2643 752 
Q 2906 1113 2906 1747 
Q 2906 2381 2643 2742 
Q 2381 3103 1925 3103 
Q 1469 3103 1208 2742 
Q 947 2381 947 1747 
z
" transform="scale(0.015625)"/>
      <path id="DejaVuSans-74" d="M 1172 4494 
L 1172 3500 
L 2356 3500 
L 2356 3053 
L 1172 3053 
L 1172 1153 
Q 1172 725 1289 603 
Q 1406 481 1766 481 
L 2356 481 
L 2356 0 
L 1766 0 
Q 1100 0 847 248 
Q 594 497 594 1153 
L 594 3053 
L 172 3053 
L 172 3500 
L 594 3500 
L 594 4494 
L 1172 4494 
z
" transform="scale(0.015625)"/>
      <path id="DejaVuSans-6e" d="M 3513 2113 
L 3513 0 
L 2938 0 
L 2938 2094 
Q 2938 2591 2744 2837 
Q 2550 3084 2163 3084 
Q 1697 3084 1428 2787 
Q 1159 2491 1159 1978 
L 1159 0 
L 581 0 
L 581 3500 
L 1159 3500 
L 1159 2956 
Q 1366 3272 1645 3428 
Q 1925 3584 2291 3584 
Q 2894 3584 3203 3211 
Q 3513 2838 3513 2113 
z
" transform="scale(0.015625)"/>
      <path id="DejaVuSans-20" transform="scale(0.015625)"/>
      <path id="DejaVuSans-28" d="M 1984 4856 
Q 1566 4138 1362 3434 
Q 1159 2731 1159 2009 
Q 1159 1288 1364 580 
Q 1569 -128 1984 -844 
L 1484 -844 
Q 1016 -109 783 600 
Q 550 1309 550 2009 
Q 550 2706 781 3412 
Q 1013 4119 1484 4856 
L 1984 4856 
z
" transform="scale(0.015625)"/>
      <path id="DejaVuSans-67" d="M 2906 1791 
Q 2906 2416 2648 2759 
Q 2391 3103 1925 3103 
Q 1463 3103 1205 2759 
Q 947 2416 947 1791 
Q 947 1169 1205 825 
Q 1463 481 1925 481 
Q 2391 481 2648 825 
Q 2906 1169 2906 1791 
z
M 3481 434 
Q 3481 -459 3084 -895 
Q 2688 -1331 1869 -1331 
Q 1566 -1331 1297 -1286 
Q 1028 -1241 775 -1147 
L 775 -588 
Q 1028 -725 1275 -790 
Q 1522 -856 1778 -856 
Q 2344 -856 2625 -561 
Q 2906 -266 2906 331 
L 2906 616 
Q 2728 306 2450 153 
Q 2172 0 1784 0 
Q 1141 0 747 490 
Q 353 981 353 1791 
Q 353 2603 747 3093 
Q 1141 3584 1784 3584 
Q 2172 3584 2450 3431 
Q 2728 3278 2906 2969 
L 2906 3500 
L 3481 3500 
L 3481 434 
z
" transform="scale(0.015625)"/>
      <path id="DejaVuSans-5f" d="M 3263 -1063 
L 3263 -1509 
L -63 -1509 
L -63 -1063 
L 3263 -1063 
z
" transform="scale(0.015625)"/>
      <path id="DejaVuSans-6d" d="M 3328 2828 
Q 3544 3216 3844 3400 
Q 4144 3584 4550 3584 
Q 5097 3584 5394 3201 
Q 5691 2819 5691 2113 
L 5691 0 
L 5113 0 
L 5113 2094 
Q 5113 2597 4934 2840 
Q 4756 3084 4391 3084 
Q 3944 3084 3684 2787 
Q 3425 2491 3425 1978 
L 3425 0 
L 2847 0 
L 2847 2094 
Q 2847 2600 2669 2842 
Q 2491 3084 2119 3084 
Q 1678 3084 1418 2786 
Q 1159 2488 1159 1978 
L 1159 0 
L 581 0 
L 581 3500 
L 1159 3500 
L 1159 2956 
Q 1356 3278 1631 3431 
Q 1906 3584 2284 3584 
Q 2666 3584 2933 3390 
Q 3200 3197 3328 2828 
z
" transform="scale(0.015625)"/>
      <path id="DejaVuSans-6b" d="M 581 4863 
L 1159 4863 
L 1159 1991 
L 2875 3500 
L 3609 3500 
L 1753 1863 
L 3688 0 
L 2938 0 
L 1159 1709 
L 1159 0 
L 581 0 
L 581 4863 
z
" transform="scale(0.015625)"/>
      <path id="DejaVuSans-65" d="M 3597 1894 
L 3597 1613 
L 953 1613 
Q 991 1019 1311 708 
Q 1631 397 2203 397 
Q 2534 397 2845 478 
Q 3156 559 3463 722 
L 3463 178 
Q 3153 47 2828 -22 
Q 2503 -91 2169 -91 
Q 1331 -91 842 396 
Q 353 884 353 1716 
Q 353 2575 817 3079 
Q 1281 3584 2069 3584 
Q 2775 3584 3186 3129 
Q 3597 2675 3597 1894 
z
M 3022 2063 
Q 3016 2534 2758 2815 
Q 2500 3097 2075 3097 
Q 1594 3097 1305 2825 
Q 1016 2553 972 2059 
L 3022 2063 
z
" transform="scale(0.015625)"/>
      <path id="DejaVuSans-29" d="M 513 4856 
L 1013 4856 
Q 1481 4119 1714 3412 
Q 1947 2706 1947 2009 
Q 1947 1309 1714 600 
Q 1481 -109 1013 -844 
L 513 -844 
Q 928 -128 1133 580 
Q 1338 1288 1338 2009 
Q 1338 2731 1133 3434 
Q 928 4138 513 4856 
z
" transform="scale(0.015625)"/>
     </defs>
     <use xlink:href="#DejaVuSans-56"/>
     <use xlink:href="#DejaVuSans-61" transform="translate(60.658203 0)"/>
     <use xlink:href="#DejaVuSans-6c" transform="translate(121.9375 0)"/>
     <use xlink:href="#DejaVuSans-69" transform="translate(149.720703 0)"/>
     <use xlink:href="#DejaVuSans-64" transform="translate(177.503906 0)"/>
     <use xlink:href="#DejaVuSans-61" transform="translate(240.980469 0)"/>
     <use xlink:href="#DejaVuSans-74" transform="translate(302.259766 0)"/>
     <use xlink:href="#DejaVuSans-69" transform="translate(341.46875 0)"/>
     <use xlink:href="#DejaVuSans-6f" transform="translate(369.251953 0)"/>
     <use xlink:href="#DejaVuSans-6e" transform="translate(430.433594 0)"/>
     <use xlink:href="#DejaVuSans-20" transform="translate(493.8125 0)"/>
     <use xlink:href="#DejaVuSans-6c" transform="translate(525.599609 0)"/>
     <use xlink:href="#DejaVuSans-6f" transform="translate(553.382812 0)"/>
     <use xlink:href="#DejaVuSans-73" transform="translate(614.564453 0)"/>
     <use xlink:href="#DejaVuSans-73" transform="translate(666.664062 0)"/>
     <use xlink:href="#DejaVuSans-20" transform="translate(718.763672 0)"/>
     <use xlink:href="#DejaVuSans-28" transform="translate(750.550781 0)"/>
     <use xlink:href="#DejaVuSans-67" transform="translate(789.564453 0)"/>
     <use xlink:href="#DejaVuSans-5f" transform="translate(853.041016 0)"/>
     <use xlink:href="#DejaVuSans-6c" transform="translate(903.041016 0)"/>
     <use xlink:href="#DejaVuSans-6f" transform="translate(930.824219 0)"/>
     <use xlink:href="#DejaVuSans-73" transform="translate(992.005859 0)"/>
     <use xlink:href="#DejaVuSans-73" transform="translate(1044.105469 0)"/>
     <use xlink:href="#DejaVuSans-20" transform="translate(1096.205078 0)"/>
     <use xlink:href="#DejaVuSans-69" transform="translate(1127.992188 0)"/>
     <use xlink:href="#DejaVuSans-20" transform="translate(1155.775391 0)"/>
     <use xlink:href="#DejaVuSans-6d" transform="translate(1187.5625 0)"/>
     <use xlink:href="#DejaVuSans-61" transform="translate(1284.974609 0)"/>
     <use xlink:href="#DejaVuSans-73" transform="translate(1346.253906 0)"/>
     <use xlink:href="#DejaVuSans-6b" transform="translate(1398.353516 0)"/>
     <use xlink:href="#DejaVuSans-65" transform="translate(1452.638672 0)"/>
     <use xlink:href="#DejaVuSans-64" transform="translate(1514.162109 0)"/>
     <use xlink:href="#DejaVuSans-5f" transform="translate(1577.638672 0)"/>
     <use xlink:href="#DejaVuSans-6c" transform="translate(1627.638672 0)"/>
     <use xlink:href="#DejaVuSans-31" transform="translate(1655.421875 0)"/>
     <use xlink:href="#DejaVuSans-29" transform="translate(1719.044922 0)"/>
    </g>
   </g>
   <g id="legend_1">
    <g id="patch_7">
     <path d="M 260.581412 64.7925 
L 345.72985 64.7925 
Q 347.72985 64.7925 347.72985 62.7925 
L 347.72985 33.88 
Q 347.72985 31.88 345.72985 31.88 
L 260.581412 31.88 
Q 258.581412 31.88 258.581412 33.88 
L 258.581412 62.7925 
Q 258.581412 64.7925 260.581412 64.7925 
z
" style="fill: #ffffff; opacity: 0.8; stroke: #cccccc; stroke-linejoin: miter"/>
    </g>
    <g id="line2d_31">
     <path d="M 262.581412 39.978438 
L 272.581412 39.978438 
L 282.581412 39.978438 
" style="fill: none; stroke: #1f77b4; stroke-width: 1.5; stroke-linecap: square"/>
    </g>
    <g id="text_18">
     <!-- g_loss -->
     <g transform="translate(290.581412 43.478438) scale(0.1 -0.1)">
      <use xlink:href="#DejaVuSans-67"/>
      <use xlink:href="#DejaVuSans-5f" transform="translate(63.476562 0)"/>
      <use xlink:href="#DejaVuSans-6c" transform="translate(113.476562 0)"/>
      <use xlink:href="#DejaVuSans-6f" transform="translate(141.259766 0)"/>
      <use xlink:href="#DejaVuSans-73" transform="translate(202.441406 0)"/>
      <use xlink:href="#DejaVuSans-73" transform="translate(254.541016 0)"/>
     </g>
    </g>
    <g id="line2d_32">
     <path d="M 262.581412 54.934687 
L 272.581412 54.934687 
L 282.581412 54.934687 
" style="fill: none; stroke: #ff7f0e; stroke-width: 1.5; stroke-linecap: square"/>
    </g>
    <g id="text_19">
     <!-- masked_l1 -->
     <g transform="translate(290.581412 58.434687) scale(0.1 -0.1)">
      <use xlink:href="#DejaVuSans-6d"/>
      <use xlink:href="#DejaVuSans-61" transform="translate(97.412109 0)"/>
      <use xlink:href="#DejaVuSans-73" transform="translate(158.691406 0)"/>
      <use xlink:href="#DejaVuSans-6b" transform="translate(210.791016 0)"/>
      <use xlink:href="#DejaVuSans-65" transform="translate(265.076172 0)"/>
      <use xlink:href="#DejaVuSans-64" transform="translate(326.599609 0)"/>
      <use xlink:href="#DejaVuSans-5f" transform="translate(390.076172 0)"/>
      <use xlink:href="#DejaVuSans-6c" transform="translate(440.076172 0)"/>
      <use xlink:href="#DejaVuSans-31" transform="translate(467.859375 0)"/>
     </g>
    </g>
   </g>
  </g>
  <g id="axes_2">
   <g id="patch_8">
    <path d="M 403.895 251.44 
L 708.90485 251.44 
L 708.90485 26.88 
L 403.895 26.88 
z
" style="fill: #ffffff"/>
   </g>
   <g id="matplotlib.axis_3">
    <g id="xtick_7">
     <g id="line2d_33">
      <path d="M 417.759084 251.44 
L 417.759084 26.88 
" clip-path="url(#p51b1d09d0d)" style="fill: none; stroke: #b0b0b0; stroke-width: 0.8; stroke-linecap: square"/>
     </g>
     <g id="line2d_34">
      <g>
       <use xlink:href="#m137116e513" x="417.759084" y="251.44" style="stroke: #000000; stroke-width: 0.8"/>
      </g>
     </g>
     <g id="text_20">
      <!-- 0 -->
      <g transform="translate(414.577834 266.038437) scale(0.1 -0.1)">
       <use xlink:href="#DejaVuSans-30"/>
      </g>
     </g>
    </g>
    <g id="xtick_8">
     <g id="line2d_35">
      <path d="M 473.775585 251.44 
L 473.775585 26.88 
" clip-path="url(#p51b1d09d0d)" style="fill: none; stroke: #b0b0b0; stroke-width: 0.8; stroke-linecap: square"/>
     </g>
     <g id="line2d_36">
      <g>
       <use xlink:href="#m137116e513" x="473.775585" y="251.44" style="stroke: #000000; stroke-width: 0.8"/>
      </g>
     </g>
     <g id="text_21">
      <!-- 20 -->
      <g transform="translate(467.413085 266.038437) scale(0.1 -0.1)">
       <use xlink:href="#DejaVuSans-32"/>
       <use xlink:href="#DejaVuSans-30" transform="translate(63.623047 0)"/>
      </g>
     </g>
    </g>
    <g id="xtick_9">
     <g id="line2d_37">
      <path d="M 529.792087 251.44 
L 529.792087 26.88 
" clip-path="url(#p51b1d09d0d)" style="fill: none; stroke: #b0b0b0; stroke-width: 0.8; stroke-linecap: square"/>
     </g>
     <g id="line2d_38">
      <g>
       <use xlink:href="#m137116e513" x="529.792087" y="251.44" style="stroke: #000000; stroke-width: 0.8"/>
      </g>
     </g>
     <g id="text_22">
      <!-- 40 -->
      <g transform="translate(523.429587 266.038437) scale(0.1 -0.1)">
       <use xlink:href="#DejaVuSans-34"/>
       <use xlink:href="#DejaVuSans-30" transform="translate(63.623047 0)"/>
      </g>
     </g>
    </g>
    <g id="xtick_10">
     <g id="line2d_39">
      <path d="M 585.808588 251.44 
L 585.808588 26.88 
" clip-path="url(#p51b1d09d0d)" style="fill: none; stroke: #b0b0b0; stroke-width: 0.8; stroke-linecap: square"/>
     </g>
     <g id="line2d_40">
      <g>
       <use xlink:href="#m137116e513" x="585.808588" y="251.44" style="stroke: #000000; stroke-width: 0.8"/>
      </g>
     </g>
     <g id="text_23">
      <!-- 60 -->
      <g transform="translate(579.446088 266.038437) scale(0.1 -0.1)">
       <use xlink:href="#DejaVuSans-36"/>
       <use xlink:href="#DejaVuSans-30" transform="translate(63.623047 0)"/>
      </g>
     </g>
    </g>
    <g id="xtick_11">
     <g id="line2d_41">
      <path d="M 641.825089 251.44 
L 641.825089 26.88 
" clip-path="url(#p51b1d09d0d)" style="fill: none; stroke: #b0b0b0; stroke-width: 0.8; stroke-linecap: square"/>
     </g>
     <g id="line2d_42">
      <g>
       <use xlink:href="#m137116e513" x="641.825089" y="251.44" style="stroke: #000000; stroke-width: 0.8"/>
      </g>
     </g>
     <g id="text_24">
      <!-- 80 -->
      <g transform="translate(635.462589 266.038437) scale(0.1 -0.1)">
       <use xlink:href="#DejaVuSans-38"/>
       <use xlink:href="#DejaVuSans-30" transform="translate(63.623047 0)"/>
      </g>
     </g>
    </g>
    <g id="xtick_12">
     <g id="line2d_43">
      <path d="M 697.841591 251.44 
L 697.841591 26.88 
" clip-path="url(#p51b1d09d0d)" style="fill: none; stroke: #b0b0b0; stroke-width: 0.8; stroke-linecap: square"/>
     </g>
     <g id="line2d_44">
      <g>
       <use xlink:href="#m137116e513" x="697.841591" y="251.44" style="stroke: #000000; stroke-width: 0.8"/>
      </g>
     </g>
     <g id="text_25">
      <!-- 100 -->
      <g transform="translate(688.297841 266.038437) scale(0.1 -0.1)">
       <use xlink:href="#DejaVuSans-31"/>
       <use xlink:href="#DejaVuSans-30" transform="translate(63.623047 0)"/>
       <use xlink:href="#DejaVuSans-30" transform="translate(127.246094 0)"/>
      </g>
     </g>
    </g>
    <g id="text_26">
     <!-- Epochs -->
     <g transform="translate(538.4843 279.716563) scale(0.1 -0.1)">
      <use xlink:href="#DejaVuSans-45"/>
      <use xlink:href="#DejaVuSans-70" transform="translate(63.183594 0)"/>
      <use xlink:href="#DejaVuSans-6f" transform="translate(126.660156 0)"/>
      <use xlink:href="#DejaVuSans-63" transform="translate(187.841797 0)"/>
      <use xlink:href="#DejaVuSans-68" transform="translate(242.822266 0)"/>
      <use xlink:href="#DejaVuSans-73" transform="translate(306.201172 0)"/>
     </g>
    </g>
   </g>
   <g id="matplotlib.axis_4">
    <g id="ytick_9">
     <g id="line2d_45">
      <path d="M 403.895 237.074303 
L 708.90485 237.074303 
" clip-path="url(#p51b1d09d0d)" style="fill: none; stroke: #b0b0b0; stroke-width: 0.8; stroke-linecap: square"/>
     </g>
     <g id="line2d_46">
      <g>
       <use xlink:href="#m803b99ddc7" x="403.895" y="237.074303" style="stroke: #000000; stroke-width: 0.8"/>
      </g>
     </g>
     <g id="text_27">
      <!-- 0.1 -->
      <g transform="translate(380.991875 240.873522) scale(0.1 -0.1)">
       <defs>
        <path id="DejaVuSans-2e" d="M 684 794 
L 1344 794 
L 1344 0 
L 684 0 
L 684 794 
z
" transform="scale(0.015625)"/>
       </defs>
       <use xlink:href="#DejaVuSans-30"/>
       <use xlink:href="#DejaVuSans-2e" transform="translate(63.623047 0)"/>
       <use xlink:href="#DejaVuSans-31" transform="translate(95.410156 0)"/>
      </g>
     </g>
    </g>
    <g id="ytick_10">
     <g id="line2d_47">
      <path d="M 403.895 207.739507 
L 708.90485 207.739507 
" clip-path="url(#p51b1d09d0d)" style="fill: none; stroke: #b0b0b0; stroke-width: 0.8; stroke-linecap: square"/>
     </g>
     <g id="line2d_48">
      <g>
       <use xlink:href="#m803b99ddc7" x="403.895" y="207.739507" style="stroke: #000000; stroke-width: 0.8"/>
      </g>
     </g>
     <g id="text_28">
      <!-- 0.2 -->
      <g transform="translate(380.991875 211.538726) scale(0.1 -0.1)">
       <use xlink:href="#DejaVuSans-30"/>
       <use xlink:href="#DejaVuSans-2e" transform="translate(63.623047 0)"/>
       <use xlink:href="#DejaVuSans-32" transform="translate(95.410156 0)"/>
      </g>
     </g>
    </g>
    <g id="ytick_11">
     <g id="line2d_49">
      <path d="M 403.895 178.404711 
L 708.90485 178.404711 
" clip-path="url(#p51b1d09d0d)" style="fill: none; stroke: #b0b0b0; stroke-width: 0.8; stroke-linecap: square"/>
     </g>
     <g id="line2d_50">
      <g>
       <use xlink:href="#m803b99ddc7" x="403.895" y="178.404711" style="stroke: #000000; stroke-width: 0.8"/>
      </g>
     </g>
     <g id="text_29">
      <!-- 0.3 -->
      <g transform="translate(380.991875 182.203929) scale(0.1 -0.1)">
       <use xlink:href="#DejaVuSans-30"/>
       <use xlink:href="#DejaVuSans-2e" transform="translate(63.623047 0)"/>
       <use xlink:href="#DejaVuSans-33" transform="translate(95.410156 0)"/>
      </g>
     </g>
    </g>
    <g id="ytick_12">
     <g id="line2d_51">
      <path d="M 403.895 149.069914 
L 708.90485 149.069914 
" clip-path="url(#p51b1d09d0d)" style="fill: none; stroke: #b0b0b0; stroke-width: 0.8; stroke-linecap: square"/>
     </g>
     <g id="line2d_52">
      <g>
       <use xlink:href="#m803b99ddc7" x="403.895" y="149.069914" style="stroke: #000000; stroke-width: 0.8"/>
      </g>
     </g>
     <g id="text_30">
      <!-- 0.4 -->
      <g transform="translate(380.991875 152.869133) scale(0.1 -0.1)">
       <use xlink:href="#DejaVuSans-30"/>
       <use xlink:href="#DejaVuSans-2e" transform="translate(63.623047 0)"/>
       <use xlink:href="#DejaVuSans-34" transform="translate(95.410156 0)"/>
      </g>
     </g>
    </g>
    <g id="ytick_13">
     <g id="line2d_53">
      <path d="M 403.895 119.735118 
L 708.90485 119.735118 
" clip-path="url(#p51b1d09d0d)" style="fill: none; stroke: #b0b0b0; stroke-width: 0.8; stroke-linecap: square"/>
     </g>
     <g id="line2d_54">
      <g>
       <use xlink:href="#m803b99ddc7" x="403.895" y="119.735118" style="stroke: #000000; stroke-width: 0.8"/>
      </g>
     </g>
     <g id="text_31">
      <!-- 0.5 -->
      <g transform="translate(380.991875 123.534337) scale(0.1 -0.1)">
       <use xlink:href="#DejaVuSans-30"/>
       <use xlink:href="#DejaVuSans-2e" transform="translate(63.623047 0)"/>
       <use xlink:href="#DejaVuSans-35" transform="translate(95.410156 0)"/>
      </g>
     </g>
    </g>
    <g id="ytick_14">
     <g id="line2d_55">
      <path d="M 403.895 90.400321 
L 708.90485 90.400321 
" clip-path="url(#p51b1d09d0d)" style="fill: none; stroke: #b0b0b0; stroke-width: 0.8; stroke-linecap: square"/>
     </g>
     <g id="line2d_56">
      <g>
       <use xlink:href="#m803b99ddc7" x="403.895" y="90.400321" style="stroke: #000000; stroke-width: 0.8"/>
      </g>
     </g>
     <g id="text_32">
      <!-- 0.6 -->
      <g transform="translate(380.991875 94.19954) scale(0.1 -0.1)">
       <use xlink:href="#DejaVuSans-30"/>
       <use xlink:href="#DejaVuSans-2e" transform="translate(63.623047 0)"/>
       <use xlink:href="#DejaVuSans-36" transform="translate(95.410156 0)"/>
      </g>
     </g>
    </g>
    <g id="ytick_15">
     <g id="line2d_57">
      <path d="M 403.895 61.065525 
L 708.90485 61.065525 
" clip-path="url(#p51b1d09d0d)" style="fill: none; stroke: #b0b0b0; stroke-width: 0.8; stroke-linecap: square"/>
     </g>
     <g id="line2d_58">
      <g>
       <use xlink:href="#m803b99ddc7" x="403.895" y="61.065525" style="stroke: #000000; stroke-width: 0.8"/>
      </g>
     </g>
     <g id="text_33">
      <!-- 0.7 -->
      <g transform="translate(380.991875 64.864744) scale(0.1 -0.1)">
       <defs>
        <path id="DejaVuSans-37" d="M 525 4666 
L 3525 4666 
L 3525 4397 
L 1831 0 
L 1172 0 
L 2766 4134 
L 525 4134 
L 525 4666 
z
" transform="scale(0.015625)"/>
       </defs>
       <use xlink:href="#DejaVuSans-30"/>
       <use xlink:href="#DejaVuSans-2e" transform="translate(63.623047 0)"/>
       <use xlink:href="#DejaVuSans-37" transform="translate(95.410156 0)"/>
      </g>
     </g>
    </g>
    <g id="ytick_16">
     <g id="line2d_59">
      <path d="M 403.895 31.730729 
L 708.90485 31.730729 
" clip-path="url(#p51b1d09d0d)" style="fill: none; stroke: #b0b0b0; stroke-width: 0.8; stroke-linecap: square"/>
     </g>
     <g id="line2d_60">
      <g>
       <use xlink:href="#m803b99ddc7" x="403.895" y="31.730729" style="stroke: #000000; stroke-width: 0.8"/>
      </g>
     </g>
     <g id="text_34">
      <!-- 0.8 -->
      <g transform="translate(380.991875 35.529947) scale(0.1 -0.1)">
       <use xlink:href="#DejaVuSans-30"/>
       <use xlink:href="#DejaVuSans-2e" transform="translate(63.623047 0)"/>
       <use xlink:href="#DejaVuSans-38" transform="translate(95.410156 0)"/>
      </g>
     </g>
    </g>
    <g id="text_35">
     <!-- Loss -->
     <g transform="translate(374.912188 150.127187) rotate(-90) scale(0.1 -0.1)">
      <use xlink:href="#DejaVuSans-4c"/>
      <use xlink:href="#DejaVuSans-6f" transform="translate(53.962891 0)"/>
      <use xlink:href="#DejaVuSans-73" transform="translate(115.144531 0)"/>
      <use xlink:href="#DejaVuSans-73" transform="translate(167.244141 0)"/>
     </g>
    </g>
   </g>
   <g id="line2d_61">
    <path d="M 417.759084 173.18518 
L 420.559909 131.673531 
L 423.360734 148.050783 
L 426.161559 112.598301 
L 428.962384 128.050893 
L 431.763209 116.990452 
L 434.564034 126.73369 
L 437.36486 116.206223 
L 440.165685 129.112729 
L 442.96651 119.175752 
L 445.767335 130.526043 
L 448.56816 163.73081 
L 451.368985 166.936745 
L 454.16981 152.042905 
L 456.970635 142.952909 
L 459.77146 153.600054 
L 462.572285 149.366133 
L 465.37311 142.637718 
L 468.173935 154.830742 
L 470.97476 151.704951 
L 473.775585 154.378757 
L 476.57641 158.82621 
L 479.377236 160.680936 
L 482.178061 168.892265 
L 484.978886 159.403301 
L 487.779711 158.480157 
L 490.580536 152.482526 
L 493.381361 160.752021 
L 496.182186 162.513253 
L 498.983011 155.471391 
L 501.783836 160.945393 
L 504.584661 165.728211 
L 507.385486 165.963938 
L 510.186311 168.148224 
L 512.987136 160.199028 
L 515.787961 168.809592 
L 518.588786 156.068347 
L 521.389612 158.886548 
L 524.190437 155.951749 
L 526.991262 161.701388 
L 529.792087 161.076707 
L 532.592912 174.981885 
L 535.393737 151.597285 
L 538.194562 160.617007 
L 540.995387 171.276371 
L 543.796212 162.477424 
L 546.597037 141.026154 
L 549.397862 155.007274 
L 552.198687 159.111769 
L 554.999512 152.953239 
L 557.800337 117.168354 
L 560.601162 149.092221 
L 563.401988 127.492849 
L 566.202813 129.988979 
L 569.003638 148.535998 
L 571.804463 146.115734 
L 574.605288 103.034074 
L 577.406113 163.277636 
L 580.206938 155.062458 
L 583.007763 132.902711 
L 585.808588 135.018952 
L 588.609413 149.353673 
L 591.410238 144.294825 
L 594.211063 149.116711 
L 597.011888 152.791252 
L 599.812713 132.058583 
L 602.613538 147.63504 
L 605.414364 135.219134 
L 608.215189 154.473687 
L 611.016014 138.841097 
L 613.816839 139.450404 
L 616.617664 143.317935 
L 619.418489 131.270279 
L 622.219314 151.30822 
L 625.020139 143.086409 
L 627.820964 134.322037 
L 630.621789 130.805121 
L 633.422614 157.709777 
L 636.223439 143.159233 
L 639.024264 142.378358 
L 641.825089 157.395003 
L 644.625914 146.442356 
L 647.42674 142.210219 
L 650.227565 142.90125 
L 653.02839 119.390589 
L 655.829215 151.513948 
L 658.63004 127.49095 
L 661.430865 134.309981 
L 664.23169 123.715912 
L 667.032515 147.539039 
L 669.83334 143.312987 
L 672.634165 132.241961 
L 675.43499 115.082058 
L 678.235815 129.011503 
L 681.03664 128.036363 
L 683.837465 37.087273 
L 686.63829 136.76203 
L 689.439116 116.026203 
L 692.239941 149.797988 
L 695.040766 143.84629 
" clip-path="url(#p51b1d09d0d)" style="fill: none; stroke: #1f77b4; stroke-width: 1.5; stroke-linecap: square"/>
   </g>
   <g id="line2d_62">
    <path d="M 417.759084 90.948484 
L 420.559909 146.943499 
L 423.360734 186.894717 
L 426.161559 202.264392 
L 428.962384 214.746823 
L 431.763209 224.979595 
L 434.564034 227.837967 
L 437.36486 230.548154 
L 440.165685 228.29391 
L 442.96651 235.924384 
L 445.767335 234.898948 
L 448.56816 234.560712 
L 451.368985 237.398835 
L 454.16981 239.253144 
L 456.970635 238.205443 
L 459.77146 237.616422 
L 462.572285 239.829333 
L 465.37311 235.064209 
L 468.173935 235.870718 
L 470.97476 235.326868 
L 473.775585 235.903101 
L 476.57641 239.290297 
L 479.377236 235.431746 
L 482.178061 235.78216 
L 484.978886 237.971171 
L 487.779711 240.170255 
L 490.580536 239.086555 
L 493.381361 238.254309 
L 496.182186 236.492365 
L 498.983011 236.984537 
L 501.783836 230.74328 
L 504.584661 236.45007 
L 507.385486 238.589357 
L 510.186311 236.390376 
L 512.987136 239.387347 
L 515.787961 235.781402 
L 518.588786 240.121765 
L 521.389612 238.132487 
L 524.190437 235.924787 
L 526.991262 238.813517 
L 529.792087 239.998089 
L 532.592912 238.16806 
L 535.393737 241.101011 
L 538.194562 238.596657 
L 540.995387 238.437725 
L 543.796212 237.986812 
L 546.597037 235.985565 
L 549.397862 238.624565 
L 552.198687 239.848132 
L 554.999512 233.835544 
L 557.800337 240.268572 
L 560.601162 236.941959 
L 563.401988 237.140185 
L 566.202813 236.679389 
L 569.003638 237.820366 
L 571.804463 239.180658 
L 574.605288 238.347375 
L 577.406113 236.610847 
L 580.206938 237.650603 
L 583.007763 236.388676 
L 585.808588 235.812373 
L 588.609413 238.616049 
L 591.410238 236.336231 
L 594.211063 234.978684 
L 597.011888 240.195942 
L 599.812713 238.052968 
L 602.613538 239.050271 
L 605.414364 240.113499 
L 608.215189 238.493024 
L 611.016014 237.928909 
L 613.816839 237.629486 
L 616.617664 238.872215 
L 619.418489 238.5723 
L 622.219314 240.123965 
L 625.020139 238.773925 
L 627.820964 239.778244 
L 630.621789 238.741993 
L 633.422614 238.513525 
L 636.223439 239.062695 
L 639.024264 237.515536 
L 641.825089 236.978537 
L 644.625914 237.702121 
L 647.42674 238.241609 
L 650.227565 237.516004 
L 653.02839 237.484164 
L 655.829215 237.450516 
L 658.63004 240.005304 
L 661.430865 236.437666 
L 664.23169 241.232727 
L 667.032515 239.610186 
L 669.83334 240.673652 
L 672.634165 240.002764 
L 675.43499 240.513451 
L 678.235815 240.024206 
L 681.03664 234.741807 
L 683.837465 239.734309 
L 686.63829 239.622473 
L 689.439116 239.028785 
L 692.239941 240.006223 
L 695.040766 240.464559 
" clip-path="url(#p51b1d09d0d)" style="fill: none; stroke: #ff7f0e; stroke-width: 1.5; stroke-linecap: square"/>
   </g>
   <g id="patch_9">
    <path d="M 403.895 251.44 
L 403.895 26.88 
" style="fill: none; stroke: #000000; stroke-width: 0.8; stroke-linejoin: miter; stroke-linecap: square"/>
   </g>
   <g id="patch_10">
    <path d="M 708.90485 251.44 
L 708.90485 26.88 
" style="fill: none; stroke: #000000; stroke-width: 0.8; stroke-linejoin: miter; stroke-linecap: square"/>
   </g>
   <g id="patch_11">
    <path d="M 403.895 251.44 
L 708.90485 251.44 
" style="fill: none; stroke: #000000; stroke-width: 0.8; stroke-linejoin: miter; stroke-linecap: square"/>
   </g>
   <g id="patch_12">
    <path d="M 403.895 26.88 
L 708.90485 26.88 
" style="fill: none; stroke: #000000; stroke-width: 0.8; stroke-linejoin: miter; stroke-linecap: square"/>
   </g>
   <g id="text_36">
    <!-- Validation loss (d_loss i raw_l1) -->
    <g transform="translate(463.272425 20.88) scale(0.12 -0.12)">
     <defs>
      <path id="DejaVuSans-72" d="M 2631 2963 
Q 2534 3019 2420 3045 
Q 2306 3072 2169 3072 
Q 1681 3072 1420 2755 
Q 1159 2438 1159 1844 
L 1159 0 
L 581 0 
L 581 3500 
L 1159 3500 
L 1159 2956 
Q 1341 3275 1631 3429 
Q 1922 3584 2338 3584 
Q 2397 3584 2469 3576 
Q 2541 3569 2628 3553 
L 2631 2963 
z
" transform="scale(0.015625)"/>
      <path id="DejaVuSans-77" d="M 269 3500 
L 844 3500 
L 1563 769 
L 2278 3500 
L 2956 3500 
L 3675 769 
L 4391 3500 
L 4966 3500 
L 4050 0 
L 3372 0 
L 2619 2869 
L 1863 0 
L 1184 0 
L 269 3500 
z
" transform="scale(0.015625)"/>
     </defs>
     <use xlink:href="#DejaVuSans-56"/>
     <use xlink:href="#DejaVuSans-61" transform="translate(60.658203 0)"/>
     <use xlink:href="#DejaVuSans-6c" transform="translate(121.9375 0)"/>
     <use xlink:href="#DejaVuSans-69" transform="translate(149.720703 0)"/>
     <use xlink:href="#DejaVuSans-64" transform="translate(177.503906 0)"/>
     <use xlink:href="#DejaVuSans-61" transform="translate(240.980469 0)"/>
     <use xlink:href="#DejaVuSans-74" transform="translate(302.259766 0)"/>
     <use xlink:href="#DejaVuSans-69" transform="translate(341.46875 0)"/>
     <use xlink:href="#DejaVuSans-6f" transform="translate(369.251953 0)"/>
     <use xlink:href="#DejaVuSans-6e" transform="translate(430.433594 0)"/>
     <use xlink:href="#DejaVuSans-20" transform="translate(493.8125 0)"/>
     <use xlink:href="#DejaVuSans-6c" transform="translate(525.599609 0)"/>
     <use xlink:href="#DejaVuSans-6f" transform="translate(553.382812 0)"/>
     <use xlink:href="#DejaVuSans-73" transform="translate(614.564453 0)"/>
     <use xlink:href="#DejaVuSans-73" transform="translate(666.664062 0)"/>
     <use xlink:href="#DejaVuSans-20" transform="translate(718.763672 0)"/>
     <use xlink:href="#DejaVuSans-28" transform="translate(750.550781 0)"/>
     <use xlink:href="#DejaVuSans-64" transform="translate(789.564453 0)"/>
     <use xlink:href="#DejaVuSans-5f" transform="translate(853.041016 0)"/>
     <use xlink:href="#DejaVuSans-6c" transform="translate(903.041016 0)"/>
     <use xlink:href="#DejaVuSans-6f" transform="translate(930.824219 0)"/>
     <use xlink:href="#DejaVuSans-73" transform="translate(992.005859 0)"/>
     <use xlink:href="#DejaVuSans-73" transform="translate(1044.105469 0)"/>
     <use xlink:href="#DejaVuSans-20" transform="translate(1096.205078 0)"/>
     <use xlink:href="#DejaVuSans-69" transform="translate(1127.992188 0)"/>
     <use xlink:href="#DejaVuSans-20" transform="translate(1155.775391 0)"/>
     <use xlink:href="#DejaVuSans-72" transform="translate(1187.5625 0)"/>
     <use xlink:href="#DejaVuSans-61" transform="translate(1228.675781 0)"/>
     <use xlink:href="#DejaVuSans-77" transform="translate(1289.955078 0)"/>
     <use xlink:href="#DejaVuSans-5f" transform="translate(1371.742188 0)"/>
     <use xlink:href="#DejaVuSans-6c" transform="translate(1421.742188 0)"/>
     <use xlink:href="#DejaVuSans-31" transform="translate(1449.525391 0)"/>
     <use xlink:href="#DejaVuSans-29" transform="translate(1513.148438 0)"/>
    </g>
   </g>
   <g id="legend_2">
    <g id="patch_13">
     <path d="M 410.895 64.7925 
L 475.452812 64.7925 
Q 477.452812 64.7925 477.452812 62.7925 
L 477.452812 33.88 
Q 477.452812 31.88 475.452812 31.88 
L 410.895 31.88 
Q 408.895 31.88 408.895 33.88 
L 408.895 62.7925 
Q 408.895 64.7925 410.895 64.7925 
z
" style="fill: #ffffff; opacity: 0.8; stroke: #cccccc; stroke-linejoin: miter"/>
    </g>
    <g id="line2d_63">
     <path d="M 412.895 39.978438 
L 422.895 39.978438 
L 432.895 39.978438 
" style="fill: none; stroke: #1f77b4; stroke-width: 1.5; stroke-linecap: square"/>
    </g>
    <g id="text_37">
     <!-- d_loss -->
     <g transform="translate(440.895 43.478438) scale(0.1 -0.1)">
      <use xlink:href="#DejaVuSans-64"/>
      <use xlink:href="#DejaVuSans-5f" transform="translate(63.476562 0)"/>
      <use xlink:href="#DejaVuSans-6c" transform="translate(113.476562 0)"/>
      <use xlink:href="#DejaVuSans-6f" transform="translate(141.259766 0)"/>
      <use xlink:href="#DejaVuSans-73" transform="translate(202.441406 0)"/>
      <use xlink:href="#DejaVuSans-73" transform="translate(254.541016 0)"/>
     </g>
    </g>
    <g id="line2d_64">
     <path d="M 412.895 54.934687 
L 422.895 54.934687 
L 432.895 54.934687 
" style="fill: none; stroke: #ff7f0e; stroke-width: 1.5; stroke-linecap: square"/>
    </g>
    <g id="text_38">
     <!-- raw_l1 -->
     <g transform="translate(440.895 58.434687) scale(0.1 -0.1)">
      <use xlink:href="#DejaVuSans-72"/>
      <use xlink:href="#DejaVuSans-61" transform="translate(41.113281 0)"/>
      <use xlink:href="#DejaVuSans-77" transform="translate(102.392578 0)"/>
      <use xlink:href="#DejaVuSans-5f" transform="translate(184.179688 0)"/>
      <use xlink:href="#DejaVuSans-6c" transform="translate(234.179688 0)"/>
      <use xlink:href="#DejaVuSans-31" transform="translate(261.962891 0)"/>
     </g>
    </g>
   </g>
  </g>
  <g id="axes_3">
   <g id="patch_14">
    <path d="M 47.72 534.04 
L 352.72985 534.04 
L 352.72985 309.48 
L 47.72 309.48 
z
" style="fill: #ffffff"/>
   </g>
   <g id="matplotlib.axis_5">
    <g id="xtick_13">
     <g id="line2d_65">
      <path d="M 61.584084 534.04 
L 61.584084 309.48 
" clip-path="url(#p7cf5c8cfeb)" style="fill: none; stroke: #b0b0b0; stroke-width: 0.8; stroke-linecap: square"/>
     </g>
     <g id="line2d_66">
      <g>
       <use xlink:href="#m137116e513" x="61.584084" y="534.04" style="stroke: #000000; stroke-width: 0.8"/>
      </g>
     </g>
     <g id="text_39">
      <!-- 0 -->
      <g transform="translate(58.402834 548.638438) scale(0.1 -0.1)">
       <use xlink:href="#DejaVuSans-30"/>
      </g>
     </g>
    </g>
    <g id="xtick_14">
     <g id="line2d_67">
      <path d="M 117.600585 534.04 
L 117.600585 309.48 
" clip-path="url(#p7cf5c8cfeb)" style="fill: none; stroke: #b0b0b0; stroke-width: 0.8; stroke-linecap: square"/>
     </g>
     <g id="line2d_68">
      <g>
       <use xlink:href="#m137116e513" x="117.600585" y="534.04" style="stroke: #000000; stroke-width: 0.8"/>
      </g>
     </g>
     <g id="text_40">
      <!-- 20 -->
      <g transform="translate(111.238085 548.638438) scale(0.1 -0.1)">
       <use xlink:href="#DejaVuSans-32"/>
       <use xlink:href="#DejaVuSans-30" transform="translate(63.623047 0)"/>
      </g>
     </g>
    </g>
    <g id="xtick_15">
     <g id="line2d_69">
      <path d="M 173.617087 534.04 
L 173.617087 309.48 
" clip-path="url(#p7cf5c8cfeb)" style="fill: none; stroke: #b0b0b0; stroke-width: 0.8; stroke-linecap: square"/>
     </g>
     <g id="line2d_70">
      <g>
       <use xlink:href="#m137116e513" x="173.617087" y="534.04" style="stroke: #000000; stroke-width: 0.8"/>
      </g>
     </g>
     <g id="text_41">
      <!-- 40 -->
      <g transform="translate(167.254587 548.638438) scale(0.1 -0.1)">
       <use xlink:href="#DejaVuSans-34"/>
       <use xlink:href="#DejaVuSans-30" transform="translate(63.623047 0)"/>
      </g>
     </g>
    </g>
    <g id="xtick_16">
     <g id="line2d_71">
      <path d="M 229.633588 534.04 
L 229.633588 309.48 
" clip-path="url(#p7cf5c8cfeb)" style="fill: none; stroke: #b0b0b0; stroke-width: 0.8; stroke-linecap: square"/>
     </g>
     <g id="line2d_72">
      <g>
       <use xlink:href="#m137116e513" x="229.633588" y="534.04" style="stroke: #000000; stroke-width: 0.8"/>
      </g>
     </g>
     <g id="text_42">
      <!-- 60 -->
      <g transform="translate(223.271088 548.638438) scale(0.1 -0.1)">
       <use xlink:href="#DejaVuSans-36"/>
       <use xlink:href="#DejaVuSans-30" transform="translate(63.623047 0)"/>
      </g>
     </g>
    </g>
    <g id="xtick_17">
     <g id="line2d_73">
      <path d="M 285.650089 534.04 
L 285.650089 309.48 
" clip-path="url(#p7cf5c8cfeb)" style="fill: none; stroke: #b0b0b0; stroke-width: 0.8; stroke-linecap: square"/>
     </g>
     <g id="line2d_74">
      <g>
       <use xlink:href="#m137116e513" x="285.650089" y="534.04" style="stroke: #000000; stroke-width: 0.8"/>
      </g>
     </g>
     <g id="text_43">
      <!-- 80 -->
      <g transform="translate(279.287589 548.638438) scale(0.1 -0.1)">
       <use xlink:href="#DejaVuSans-38"/>
       <use xlink:href="#DejaVuSans-30" transform="translate(63.623047 0)"/>
      </g>
     </g>
    </g>
    <g id="xtick_18">
     <g id="line2d_75">
      <path d="M 341.666591 534.04 
L 341.666591 309.48 
" clip-path="url(#p7cf5c8cfeb)" style="fill: none; stroke: #b0b0b0; stroke-width: 0.8; stroke-linecap: square"/>
     </g>
     <g id="line2d_76">
      <g>
       <use xlink:href="#m137116e513" x="341.666591" y="534.04" style="stroke: #000000; stroke-width: 0.8"/>
      </g>
     </g>
     <g id="text_44">
      <!-- 100 -->
      <g transform="translate(332.122841 548.638438) scale(0.1 -0.1)">
       <use xlink:href="#DejaVuSans-31"/>
       <use xlink:href="#DejaVuSans-30" transform="translate(63.623047 0)"/>
       <use xlink:href="#DejaVuSans-30" transform="translate(127.246094 0)"/>
      </g>
     </g>
    </g>
    <g id="text_45">
     <!-- Epochs -->
     <g transform="translate(182.3093 562.316562) scale(0.1 -0.1)">
      <use xlink:href="#DejaVuSans-45"/>
      <use xlink:href="#DejaVuSans-70" transform="translate(63.183594 0)"/>
      <use xlink:href="#DejaVuSans-6f" transform="translate(126.660156 0)"/>
      <use xlink:href="#DejaVuSans-63" transform="translate(187.841797 0)"/>
      <use xlink:href="#DejaVuSans-68" transform="translate(242.822266 0)"/>
      <use xlink:href="#DejaVuSans-73" transform="translate(306.201172 0)"/>
     </g>
    </g>
   </g>
   <g id="matplotlib.axis_6">
    <g id="ytick_17">
     <g id="line2d_77">
      <path d="M 47.72 509.228773 
L 352.72985 509.228773 
" clip-path="url(#p7cf5c8cfeb)" style="fill: none; stroke: #b0b0b0; stroke-width: 0.8; stroke-linecap: square"/>
     </g>
     <g id="line2d_78">
      <g>
       <use xlink:href="#m803b99ddc7" x="47.72" y="509.228773" style="stroke: #000000; stroke-width: 0.8"/>
      </g>
     </g>
     <g id="text_46">
      <!-- 0.1 -->
      <g transform="translate(24.816875 513.027992) scale(0.1 -0.1)">
       <use xlink:href="#DejaVuSans-30"/>
       <use xlink:href="#DejaVuSans-2e" transform="translate(63.623047 0)"/>
       <use xlink:href="#DejaVuSans-31" transform="translate(95.410156 0)"/>
      </g>
     </g>
    </g>
    <g id="ytick_18">
     <g id="line2d_79">
      <path d="M 47.72 479.647386 
L 352.72985 479.647386 
" clip-path="url(#p7cf5c8cfeb)" style="fill: none; stroke: #b0b0b0; stroke-width: 0.8; stroke-linecap: square"/>
     </g>
     <g id="line2d_80">
      <g>
       <use xlink:href="#m803b99ddc7" x="47.72" y="479.647386" style="stroke: #000000; stroke-width: 0.8"/>
      </g>
     </g>
     <g id="text_47">
      <!-- 0.2 -->
      <g transform="translate(24.816875 483.446605) scale(0.1 -0.1)">
       <use xlink:href="#DejaVuSans-30"/>
       <use xlink:href="#DejaVuSans-2e" transform="translate(63.623047 0)"/>
       <use xlink:href="#DejaVuSans-32" transform="translate(95.410156 0)"/>
      </g>
     </g>
    </g>
    <g id="ytick_19">
     <g id="line2d_81">
      <path d="M 47.72 450.065999 
L 352.72985 450.065999 
" clip-path="url(#p7cf5c8cfeb)" style="fill: none; stroke: #b0b0b0; stroke-width: 0.8; stroke-linecap: square"/>
     </g>
     <g id="line2d_82">
      <g>
       <use xlink:href="#m803b99ddc7" x="47.72" y="450.065999" style="stroke: #000000; stroke-width: 0.8"/>
      </g>
     </g>
     <g id="text_48">
      <!-- 0.3 -->
      <g transform="translate(24.816875 453.865217) scale(0.1 -0.1)">
       <use xlink:href="#DejaVuSans-30"/>
       <use xlink:href="#DejaVuSans-2e" transform="translate(63.623047 0)"/>
       <use xlink:href="#DejaVuSans-33" transform="translate(95.410156 0)"/>
      </g>
     </g>
    </g>
    <g id="ytick_20">
     <g id="line2d_83">
      <path d="M 47.72 420.484611 
L 352.72985 420.484611 
" clip-path="url(#p7cf5c8cfeb)" style="fill: none; stroke: #b0b0b0; stroke-width: 0.8; stroke-linecap: square"/>
     </g>
     <g id="line2d_84">
      <g>
       <use xlink:href="#m803b99ddc7" x="47.72" y="420.484611" style="stroke: #000000; stroke-width: 0.8"/>
      </g>
     </g>
     <g id="text_49">
      <!-- 0.4 -->
      <g transform="translate(24.816875 424.28383) scale(0.1 -0.1)">
       <use xlink:href="#DejaVuSans-30"/>
       <use xlink:href="#DejaVuSans-2e" transform="translate(63.623047 0)"/>
       <use xlink:href="#DejaVuSans-34" transform="translate(95.410156 0)"/>
      </g>
     </g>
    </g>
    <g id="ytick_21">
     <g id="line2d_85">
      <path d="M 47.72 390.903224 
L 352.72985 390.903224 
" clip-path="url(#p7cf5c8cfeb)" style="fill: none; stroke: #b0b0b0; stroke-width: 0.8; stroke-linecap: square"/>
     </g>
     <g id="line2d_86">
      <g>
       <use xlink:href="#m803b99ddc7" x="47.72" y="390.903224" style="stroke: #000000; stroke-width: 0.8"/>
      </g>
     </g>
     <g id="text_50">
      <!-- 0.5 -->
      <g transform="translate(24.816875 394.702443) scale(0.1 -0.1)">
       <use xlink:href="#DejaVuSans-30"/>
       <use xlink:href="#DejaVuSans-2e" transform="translate(63.623047 0)"/>
       <use xlink:href="#DejaVuSans-35" transform="translate(95.410156 0)"/>
      </g>
     </g>
    </g>
    <g id="ytick_22">
     <g id="line2d_87">
      <path d="M 47.72 361.321837 
L 352.72985 361.321837 
" clip-path="url(#p7cf5c8cfeb)" style="fill: none; stroke: #b0b0b0; stroke-width: 0.8; stroke-linecap: square"/>
     </g>
     <g id="line2d_88">
      <g>
       <use xlink:href="#m803b99ddc7" x="47.72" y="361.321837" style="stroke: #000000; stroke-width: 0.8"/>
      </g>
     </g>
     <g id="text_51">
      <!-- 0.6 -->
      <g transform="translate(24.816875 365.121055) scale(0.1 -0.1)">
       <use xlink:href="#DejaVuSans-30"/>
       <use xlink:href="#DejaVuSans-2e" transform="translate(63.623047 0)"/>
       <use xlink:href="#DejaVuSans-36" transform="translate(95.410156 0)"/>
      </g>
     </g>
    </g>
    <g id="ytick_23">
     <g id="line2d_89">
      <path d="M 47.72 331.740449 
L 352.72985 331.740449 
" clip-path="url(#p7cf5c8cfeb)" style="fill: none; stroke: #b0b0b0; stroke-width: 0.8; stroke-linecap: square"/>
     </g>
     <g id="line2d_90">
      <g>
       <use xlink:href="#m803b99ddc7" x="47.72" y="331.740449" style="stroke: #000000; stroke-width: 0.8"/>
      </g>
     </g>
     <g id="text_52">
      <!-- 0.7 -->
      <g transform="translate(24.816875 335.539668) scale(0.1 -0.1)">
       <use xlink:href="#DejaVuSans-30"/>
       <use xlink:href="#DejaVuSans-2e" transform="translate(63.623047 0)"/>
       <use xlink:href="#DejaVuSans-37" transform="translate(95.410156 0)"/>
      </g>
     </g>
    </g>
    <g id="text_53">
     <!-- Scores -->
     <g transform="translate(18.737188 438.367031) rotate(-90) scale(0.1 -0.1)">
      <defs>
       <path id="DejaVuSans-53" d="M 3425 4513 
L 3425 3897 
Q 3066 4069 2747 4153 
Q 2428 4238 2131 4238 
Q 1616 4238 1336 4038 
Q 1056 3838 1056 3469 
Q 1056 3159 1242 3001 
Q 1428 2844 1947 2747 
L 2328 2669 
Q 3034 2534 3370 2195 
Q 3706 1856 3706 1288 
Q 3706 609 3251 259 
Q 2797 -91 1919 -91 
Q 1588 -91 1214 -16 
Q 841 59 441 206 
L 441 856 
Q 825 641 1194 531 
Q 1563 422 1919 422 
Q 2459 422 2753 634 
Q 3047 847 3047 1241 
Q 3047 1584 2836 1778 
Q 2625 1972 2144 2069 
L 1759 2144 
Q 1053 2284 737 2584 
Q 422 2884 422 3419 
Q 422 4038 858 4394 
Q 1294 4750 2059 4750 
Q 2388 4750 2728 4690 
Q 3069 4631 3425 4513 
z
" transform="scale(0.015625)"/>
      </defs>
      <use xlink:href="#DejaVuSans-53"/>
      <use xlink:href="#DejaVuSans-63" transform="translate(63.476562 0)"/>
      <use xlink:href="#DejaVuSans-6f" transform="translate(118.457031 0)"/>
      <use xlink:href="#DejaVuSans-72" transform="translate(179.638672 0)"/>
      <use xlink:href="#DejaVuSans-65" transform="translate(218.501953 0)"/>
      <use xlink:href="#DejaVuSans-73" transform="translate(280.025391 0)"/>
     </g>
    </g>
   </g>
   <g id="line2d_91">
    <path d="M 61.584084 336.047185 
L 64.384909 341.4488 
L 67.185734 343.064806 
L 69.986559 359.387824 
L 72.787384 378.848766 
L 75.588209 373.021103 
L 78.389034 356.640164 
L 81.18986 388.593692 
L 83.990685 352.048501 
L 86.79151 363.532817 
L 89.592335 360.801751 
L 92.39316 343.572966 
L 95.193985 326.687619 
L 97.99481 364.203456 
L 100.795635 353.17669 
L 103.59646 326.572945 
L 106.397285 363.428588 
L 109.19811 366.818145 
L 111.998935 355.045136 
L 114.79976 337.118904 
L 117.600585 353.057071 
L 120.40141 346.619473 
L 123.202236 331.710642 
L 126.003061 330.22263 
L 128.803886 340.600187 
L 131.604711 342.609948 
L 134.405536 352.747931 
L 137.206361 341.804012 
L 140.007186 337.48749 
L 142.808011 343.448608 
L 145.608836 345.952353 
L 148.409661 328.859575 
L 151.210486 335.47206 
L 154.011311 329.999529 
L 156.812136 329.141866 
L 159.612961 323.659881 
L 162.413786 341.342052 
L 165.214612 334.305424 
L 168.015437 344.370945 
L 170.816262 319.687273 
L 173.617087 337.748358 
L 176.417912 323.026174 
L 179.218737 356.559335 
L 182.019562 333.423641 
L 184.820387 320.046734 
L 187.621212 336.279221 
L 190.422037 365.94635 
L 193.222862 323.928071 
L 196.023687 345.616514 
L 198.824512 365.712673 
L 201.625337 391.22423 
L 204.426162 328.573851 
L 207.226988 366.551613 
L 210.027813 383.213771 
L 212.828638 333.872597 
L 215.629463 343.563343 
L 218.430288 414.411579 
L 221.231113 345.442046 
L 224.031938 344.351369 
L 226.832763 368.06527 
L 229.633588 343.376507 
L 232.434413 341.329714 
L 235.235238 348.300095 
L 238.036063 354.401779 
L 240.836888 353.127484 
L 243.637713 378.399219 
L 246.438538 354.985425 
L 249.239364 346.208496 
L 252.040189 341.959794 
L 254.841014 367.083157 
L 257.641839 322.438067 
L 260.442664 348.673256 
L 263.243489 357.104253 
L 266.044314 364.726965 
L 268.845139 342.95466 
L 271.645964 383.090868 
L 274.446789 380.736117 
L 277.247614 345.371545 
L 280.048439 358.758943 
L 282.849264 366.549427 
L 285.650089 342.313124 
L 288.450914 352.833256 
L 291.25174 373.531656 
L 294.052565 363.501805 
L 296.85339 395.386075 
L 299.654215 361.942185 
L 302.45504 369.699173 
L 305.255865 372.093723 
L 308.05669 385.044765 
L 310.857515 333.611791 
L 313.65834 359.944286 
L 316.459165 372.083327 
L 319.25999 376.062889 
L 322.060815 380.152718 
L 324.86164 388.596602 
L 327.662465 455.439884 
L 330.46329 375.794219 
L 333.264116 403.894114 
L 336.064941 351.389862 
L 338.865766 350.165909 
" clip-path="url(#p7cf5c8cfeb)" style="fill: none; stroke: #1f77b4; stroke-width: 1.5; stroke-linecap: square"/>
   </g>
   <g id="line2d_92">
    <path d="M 61.584084 481.421796 
L 64.384909 430.9389 
L 67.185734 457.909692 
L 69.986559 429.463279 
L 72.787384 467.516325 
L 75.588209 446.438884 
L 78.389034 442.599996 
L 81.18986 473.650075 
L 83.990685 436.658977 
L 86.79151 439.4702 
L 89.592335 451.005393 
L 92.39316 477.379502 
L 95.193985 462.731987 
L 97.99481 498.864575 
L 100.795635 463.696834 
L 103.59646 445.38131 
L 106.397285 492.164784 
L 109.19811 497.137392 
L 111.998935 495.78254 
L 114.79976 460.054006 
L 117.600585 488.927588 
L 120.40141 484.312301 
L 123.202236 467.250244 
L 126.003061 475.901225 
L 128.803886 478.492377 
L 131.604711 479.748581 
L 134.405536 483.269092 
L 137.206361 481.09397 
L 140.007186 483.152455 
L 142.808011 473.630393 
L 145.608836 489.515222 
L 148.409661 473.797993 
L 151.210486 482.399106 
L 154.011311 474.215326 
L 156.812136 462.054872 
L 159.612961 471.265906 
L 162.413786 470.936068 
L 165.214612 468.219268 
L 168.015437 479.797906 
L 170.816262 453.776389 
L 173.617087 474.867164 
L 176.417912 475.827115 
L 179.218737 489.490114 
L 182.019562 470.439447 
L 184.820387 467.716616 
L 187.621212 476.487776 
L 190.422037 497.47661 
L 193.222862 453.153053 
L 196.023687 479.640348 
L 198.824512 498.801984 
L 201.625337 489.020537 
L 204.426162 445.42044 
L 207.226988 462.254099 
L 210.027813 492.991456 
L 212.828638 448.126978 
L 215.629463 453.873168 
L 218.430288 511.902072 
L 221.231113 481.046965 
L 224.031938 468.602313 
L 226.832763 474.289862 
L 229.633588 444.375795 
L 232.434413 460.386629 
L 235.235238 464.626787 
L 238.036063 474.070585 
L 240.836888 475.564584 
L 243.637713 481.86889 
L 246.438538 471.977643 
L 249.239364 450.399432 
L 252.040189 468.343181 
L 254.841014 481.542128 
L 257.641839 432.704292 
L 260.442664 463.73058 
L 263.243489 453.520107 
L 266.044314 490.697455 
L 268.845139 458.199802 
L 271.645964 503.613327 
L 274.446789 487.234782 
L 277.247614 479.491577 
L 280.048439 476.13093 
L 282.849264 484.300907 
L 285.650089 475.683269 
L 288.450914 474.541476 
L 291.25174 492.356656 
L 294.052565 479.556718 
L 296.85339 504.424861 
L 299.654215 491.548781 
L 302.45504 467.503807 
L 305.255865 482.258385 
L 308.05669 483.557589 
L 310.857515 449.213291 
L 313.65834 479.213621 
L 316.459165 476.640725 
L 319.25999 463.316757 
L 322.060815 488.067482 
L 324.86164 496.881138 
L 327.662465 523.832727 
L 330.46329 491.069734 
L 333.264116 507.88468 
L 336.064941 475.518371 
L 338.865766 467.148848 
" clip-path="url(#p7cf5c8cfeb)" style="fill: none; stroke: #ff7f0e; stroke-width: 1.5; stroke-linecap: square"/>
   </g>
   <g id="patch_15">
    <path d="M 47.72 534.04 
L 47.72 309.48 
" style="fill: none; stroke: #000000; stroke-width: 0.8; stroke-linejoin: miter; stroke-linecap: square"/>
   </g>
   <g id="patch_16">
    <path d="M 352.72985 534.04 
L 352.72985 309.48 
" style="fill: none; stroke: #000000; stroke-width: 0.8; stroke-linejoin: miter; stroke-linecap: square"/>
   </g>
   <g id="patch_17">
    <path d="M 47.72 534.04 
L 352.72985 534.04 
" style="fill: none; stroke: #000000; stroke-width: 0.8; stroke-linejoin: miter; stroke-linecap: square"/>
   </g>
   <g id="patch_18">
    <path d="M 47.72 309.48 
L 352.72985 309.48 
" style="fill: none; stroke: #000000; stroke-width: 0.8; stroke-linejoin: miter; stroke-linecap: square"/>
   </g>
   <g id="text_54">
    <!-- Validation scores -->
    <g transform="translate(149.4443 303.48) scale(0.12 -0.12)">
     <use xlink:href="#DejaVuSans-56"/>
     <use xlink:href="#DejaVuSans-61" transform="translate(60.658203 0)"/>
     <use xlink:href="#DejaVuSans-6c" transform="translate(121.9375 0)"/>
     <use xlink:href="#DejaVuSans-69" transform="translate(149.720703 0)"/>
     <use xlink:href="#DejaVuSans-64" transform="translate(177.503906 0)"/>
     <use xlink:href="#DejaVuSans-61" transform="translate(240.980469 0)"/>
     <use xlink:href="#DejaVuSans-74" transform="translate(302.259766 0)"/>
     <use xlink:href="#DejaVuSans-69" transform="translate(341.46875 0)"/>
     <use xlink:href="#DejaVuSans-6f" transform="translate(369.251953 0)"/>
     <use xlink:href="#DejaVuSans-6e" transform="translate(430.433594 0)"/>
     <use xlink:href="#DejaVuSans-20" transform="translate(493.8125 0)"/>
     <use xlink:href="#DejaVuSans-73" transform="translate(525.599609 0)"/>
     <use xlink:href="#DejaVuSans-63" transform="translate(577.699219 0)"/>
     <use xlink:href="#DejaVuSans-6f" transform="translate(632.679688 0)"/>
     <use xlink:href="#DejaVuSans-72" transform="translate(693.861328 0)"/>
     <use xlink:href="#DejaVuSans-65" transform="translate(732.724609 0)"/>
     <use xlink:href="#DejaVuSans-73" transform="translate(794.248047 0)"/>
    </g>
   </g>
   <g id="legend_3">
    <g id="patch_19">
     <path d="M 260.634537 438.21625 
L 345.72985 438.21625 
Q 347.72985 438.21625 347.72985 436.21625 
L 347.72985 407.30375 
Q 347.72985 405.30375 345.72985 405.30375 
L 260.634537 405.30375 
Q 258.634537 405.30375 258.634537 407.30375 
L 258.634537 436.21625 
Q 258.634537 438.21625 260.634537 438.21625 
z
" style="fill: #ffffff; opacity: 0.8; stroke: #cccccc; stroke-linejoin: miter"/>
    </g>
    <g id="line2d_93">
     <path d="M 262.634537 413.402187 
L 272.634537 413.402187 
L 282.634537 413.402187 
" style="fill: none; stroke: #1f77b4; stroke-width: 1.5; stroke-linecap: square"/>
    </g>
    <g id="text_55">
     <!-- real_score -->
     <g transform="translate(290.634537 416.902187) scale(0.1 -0.1)">
      <use xlink:href="#DejaVuSans-72"/>
      <use xlink:href="#DejaVuSans-65" transform="translate(38.863281 0)"/>
      <use xlink:href="#DejaVuSans-61" transform="translate(100.386719 0)"/>
      <use xlink:href="#DejaVuSans-6c" transform="translate(161.666016 0)"/>
      <use xlink:href="#DejaVuSans-5f" transform="translate(189.449219 0)"/>
      <use xlink:href="#DejaVuSans-73" transform="translate(239.449219 0)"/>
      <use xlink:href="#DejaVuSans-63" transform="translate(291.548828 0)"/>
      <use xlink:href="#DejaVuSans-6f" transform="translate(346.529297 0)"/>
      <use xlink:href="#DejaVuSans-72" transform="translate(407.710938 0)"/>
      <use xlink:href="#DejaVuSans-65" transform="translate(446.574219 0)"/>
     </g>
    </g>
    <g id="line2d_94">
     <path d="M 262.634537 428.358437 
L 272.634537 428.358437 
L 282.634537 428.358437 
" style="fill: none; stroke: #ff7f0e; stroke-width: 1.5; stroke-linecap: square"/>
    </g>
    <g id="text_56">
     <!-- fake_score -->
     <g transform="translate(290.634537 431.858437) scale(0.1 -0.1)">
      <defs>
       <path id="DejaVuSans-66" d="M 2375 4863 
L 2375 4384 
L 1825 4384 
Q 1516 4384 1395 4259 
Q 1275 4134 1275 3809 
L 1275 3500 
L 2222 3500 
L 2222 3053 
L 1275 3053 
L 1275 0 
L 697 0 
L 697 3053 
L 147 3053 
L 147 3500 
L 697 3500 
L 697 3744 
Q 697 4328 969 4595 
Q 1241 4863 1831 4863 
L 2375 4863 
z
" transform="scale(0.015625)"/>
      </defs>
      <use xlink:href="#DejaVuSans-66"/>
      <use xlink:href="#DejaVuSans-61" transform="translate(35.205078 0)"/>
      <use xlink:href="#DejaVuSans-6b" transform="translate(96.484375 0)"/>
      <use xlink:href="#DejaVuSans-65" transform="translate(150.769531 0)"/>
      <use xlink:href="#DejaVuSans-5f" transform="translate(212.292969 0)"/>
      <use xlink:href="#DejaVuSans-73" transform="translate(262.292969 0)"/>
      <use xlink:href="#DejaVuSans-63" transform="translate(314.392578 0)"/>
      <use xlink:href="#DejaVuSans-6f" transform="translate(369.373047 0)"/>
      <use xlink:href="#DejaVuSans-72" transform="translate(430.554688 0)"/>
      <use xlink:href="#DejaVuSans-65" transform="translate(469.417969 0)"/>
     </g>
    </g>
   </g>
  </g>
  <g id="axes_4">
   <g id="patch_20">
    <path d="M 403.895 534.04 
L 708.90485 534.04 
L 708.90485 309.48 
L 403.895 309.48 
z
" style="fill: #ffffff"/>
   </g>
   <g id="matplotlib.axis_7">
    <g id="xtick_19">
     <g id="line2d_95">
      <path d="M 417.759084 534.04 
L 417.759084 309.48 
" clip-path="url(#p89128f441c)" style="fill: none; stroke: #b0b0b0; stroke-width: 0.8; stroke-linecap: square"/>
     </g>
     <g id="line2d_96">
      <g>
       <use xlink:href="#m137116e513" x="417.759084" y="534.04" style="stroke: #000000; stroke-width: 0.8"/>
      </g>
     </g>
     <g id="text_57">
      <!-- 0 -->
      <g transform="translate(414.577834 548.638438) scale(0.1 -0.1)">
       <use xlink:href="#DejaVuSans-30"/>
      </g>
     </g>
    </g>
    <g id="xtick_20">
     <g id="line2d_97">
      <path d="M 473.775585 534.04 
L 473.775585 309.48 
" clip-path="url(#p89128f441c)" style="fill: none; stroke: #b0b0b0; stroke-width: 0.8; stroke-linecap: square"/>
     </g>
     <g id="line2d_98">
      <g>
       <use xlink:href="#m137116e513" x="473.775585" y="534.04" style="stroke: #000000; stroke-width: 0.8"/>
      </g>
     </g>
     <g id="text_58">
      <!-- 20 -->
      <g transform="translate(467.413085 548.638438) scale(0.1 -0.1)">
       <use xlink:href="#DejaVuSans-32"/>
       <use xlink:href="#DejaVuSans-30" transform="translate(63.623047 0)"/>
      </g>
     </g>
    </g>
    <g id="xtick_21">
     <g id="line2d_99">
      <path d="M 529.792087 534.04 
L 529.792087 309.48 
" clip-path="url(#p89128f441c)" style="fill: none; stroke: #b0b0b0; stroke-width: 0.8; stroke-linecap: square"/>
     </g>
     <g id="line2d_100">
      <g>
       <use xlink:href="#m137116e513" x="529.792087" y="534.04" style="stroke: #000000; stroke-width: 0.8"/>
      </g>
     </g>
     <g id="text_59">
      <!-- 40 -->
      <g transform="translate(523.429587 548.638438) scale(0.1 -0.1)">
       <use xlink:href="#DejaVuSans-34"/>
       <use xlink:href="#DejaVuSans-30" transform="translate(63.623047 0)"/>
      </g>
     </g>
    </g>
    <g id="xtick_22">
     <g id="line2d_101">
      <path d="M 585.808588 534.04 
L 585.808588 309.48 
" clip-path="url(#p89128f441c)" style="fill: none; stroke: #b0b0b0; stroke-width: 0.8; stroke-linecap: square"/>
     </g>
     <g id="line2d_102">
      <g>
       <use xlink:href="#m137116e513" x="585.808588" y="534.04" style="stroke: #000000; stroke-width: 0.8"/>
      </g>
     </g>
     <g id="text_60">
      <!-- 60 -->
      <g transform="translate(579.446088 548.638438) scale(0.1 -0.1)">
       <use xlink:href="#DejaVuSans-36"/>
       <use xlink:href="#DejaVuSans-30" transform="translate(63.623047 0)"/>
      </g>
     </g>
    </g>
    <g id="xtick_23">
     <g id="line2d_103">
      <path d="M 641.825089 534.04 
L 641.825089 309.48 
" clip-path="url(#p89128f441c)" style="fill: none; stroke: #b0b0b0; stroke-width: 0.8; stroke-linecap: square"/>
     </g>
     <g id="line2d_104">
      <g>
       <use xlink:href="#m137116e513" x="641.825089" y="534.04" style="stroke: #000000; stroke-width: 0.8"/>
      </g>
     </g>
     <g id="text_61">
      <!-- 80 -->
      <g transform="translate(635.462589 548.638438) scale(0.1 -0.1)">
       <use xlink:href="#DejaVuSans-38"/>
       <use xlink:href="#DejaVuSans-30" transform="translate(63.623047 0)"/>
      </g>
     </g>
    </g>
    <g id="xtick_24">
     <g id="line2d_105">
      <path d="M 697.841591 534.04 
L 697.841591 309.48 
" clip-path="url(#p89128f441c)" style="fill: none; stroke: #b0b0b0; stroke-width: 0.8; stroke-linecap: square"/>
     </g>
     <g id="line2d_106">
      <g>
       <use xlink:href="#m137116e513" x="697.841591" y="534.04" style="stroke: #000000; stroke-width: 0.8"/>
      </g>
     </g>
     <g id="text_62">
      <!-- 100 -->
      <g transform="translate(688.297841 548.638438) scale(0.1 -0.1)">
       <use xlink:href="#DejaVuSans-31"/>
       <use xlink:href="#DejaVuSans-30" transform="translate(63.623047 0)"/>
       <use xlink:href="#DejaVuSans-30" transform="translate(127.246094 0)"/>
      </g>
     </g>
    </g>
    <g id="text_63">
     <!-- Epochs -->
     <g transform="translate(538.4843 562.316562) scale(0.1 -0.1)">
      <use xlink:href="#DejaVuSans-45"/>
      <use xlink:href="#DejaVuSans-70" transform="translate(63.183594 0)"/>
      <use xlink:href="#DejaVuSans-6f" transform="translate(126.660156 0)"/>
      <use xlink:href="#DejaVuSans-63" transform="translate(187.841797 0)"/>
      <use xlink:href="#DejaVuSans-68" transform="translate(242.822266 0)"/>
      <use xlink:href="#DejaVuSans-73" transform="translate(306.201172 0)"/>
     </g>
    </g>
   </g>
   <g id="matplotlib.axis_8">
    <g id="ytick_24">
     <g id="line2d_107">
      <path d="M 403.895 517.646501 
L 708.90485 517.646501 
" clip-path="url(#p89128f441c)" style="fill: none; stroke: #b0b0b0; stroke-width: 0.8; stroke-linecap: square"/>
     </g>
     <g id="line2d_108">
      <g>
       <use xlink:href="#m803b99ddc7" x="403.895" y="517.646501" style="stroke: #000000; stroke-width: 0.8"/>
      </g>
     </g>
     <g id="text_64">
      <!-- 20 -->
      <g transform="translate(384.17 521.44572) scale(0.1 -0.1)">
       <use xlink:href="#DejaVuSans-32"/>
       <use xlink:href="#DejaVuSans-30" transform="translate(63.623047 0)"/>
      </g>
     </g>
    </g>
    <g id="ytick_25">
     <g id="line2d_109">
      <path d="M 403.895 468.156694 
L 708.90485 468.156694 
" clip-path="url(#p89128f441c)" style="fill: none; stroke: #b0b0b0; stroke-width: 0.8; stroke-linecap: square"/>
     </g>
     <g id="line2d_110">
      <g>
       <use xlink:href="#m803b99ddc7" x="403.895" y="468.156694" style="stroke: #000000; stroke-width: 0.8"/>
      </g>
     </g>
     <g id="text_65">
      <!-- 40 -->
      <g transform="translate(384.17 471.955913) scale(0.1 -0.1)">
       <use xlink:href="#DejaVuSans-34"/>
       <use xlink:href="#DejaVuSans-30" transform="translate(63.623047 0)"/>
      </g>
     </g>
    </g>
    <g id="ytick_26">
     <g id="line2d_111">
      <path d="M 403.895 418.666887 
L 708.90485 418.666887 
" clip-path="url(#p89128f441c)" style="fill: none; stroke: #b0b0b0; stroke-width: 0.8; stroke-linecap: square"/>
     </g>
     <g id="line2d_112">
      <g>
       <use xlink:href="#m803b99ddc7" x="403.895" y="418.666887" style="stroke: #000000; stroke-width: 0.8"/>
      </g>
     </g>
     <g id="text_66">
      <!-- 60 -->
      <g transform="translate(384.17 422.466106) scale(0.1 -0.1)">
       <use xlink:href="#DejaVuSans-36"/>
       <use xlink:href="#DejaVuSans-30" transform="translate(63.623047 0)"/>
      </g>
     </g>
    </g>
    <g id="ytick_27">
     <g id="line2d_113">
      <path d="M 403.895 369.17708 
L 708.90485 369.17708 
" clip-path="url(#p89128f441c)" style="fill: none; stroke: #b0b0b0; stroke-width: 0.8; stroke-linecap: square"/>
     </g>
     <g id="line2d_114">
      <g>
       <use xlink:href="#m803b99ddc7" x="403.895" y="369.17708" style="stroke: #000000; stroke-width: 0.8"/>
      </g>
     </g>
     <g id="text_67">
      <!-- 80 -->
      <g transform="translate(384.17 372.976299) scale(0.1 -0.1)">
       <use xlink:href="#DejaVuSans-38"/>
       <use xlink:href="#DejaVuSans-30" transform="translate(63.623047 0)"/>
      </g>
     </g>
    </g>
    <g id="ytick_28">
     <g id="line2d_115">
      <path d="M 403.895 319.687273 
L 708.90485 319.687273 
" clip-path="url(#p89128f441c)" style="fill: none; stroke: #b0b0b0; stroke-width: 0.8; stroke-linecap: square"/>
     </g>
     <g id="line2d_116">
      <g>
       <use xlink:href="#m803b99ddc7" x="403.895" y="319.687273" style="stroke: #000000; stroke-width: 0.8"/>
      </g>
     </g>
     <g id="text_68">
      <!-- 100 -->
      <g transform="translate(377.8075 323.486491) scale(0.1 -0.1)">
       <use xlink:href="#DejaVuSans-31"/>
       <use xlink:href="#DejaVuSans-30" transform="translate(63.623047 0)"/>
       <use xlink:href="#DejaVuSans-30" transform="translate(127.246094 0)"/>
      </g>
     </g>
    </g>
    <g id="text_69">
     <!-- Accurency (%) -->
     <g transform="translate(371.727813 457.898281) rotate(-90) scale(0.1 -0.1)">
      <defs>
       <path id="DejaVuSans-41" d="M 2188 4044 
L 1331 1722 
L 3047 1722 
L 2188 4044 
z
M 1831 4666 
L 2547 4666 
L 4325 0 
L 3669 0 
L 3244 1197 
L 1141 1197 
L 716 0 
L 50 0 
L 1831 4666 
z
" transform="scale(0.015625)"/>
       <path id="DejaVuSans-75" d="M 544 1381 
L 544 3500 
L 1119 3500 
L 1119 1403 
Q 1119 906 1312 657 
Q 1506 409 1894 409 
Q 2359 409 2629 706 
Q 2900 1003 2900 1516 
L 2900 3500 
L 3475 3500 
L 3475 0 
L 2900 0 
L 2900 538 
Q 2691 219 2414 64 
Q 2138 -91 1772 -91 
Q 1169 -91 856 284 
Q 544 659 544 1381 
z
M 1991 3584 
L 1991 3584 
z
" transform="scale(0.015625)"/>
       <path id="DejaVuSans-79" d="M 2059 -325 
Q 1816 -950 1584 -1140 
Q 1353 -1331 966 -1331 
L 506 -1331 
L 506 -850 
L 844 -850 
Q 1081 -850 1212 -737 
Q 1344 -625 1503 -206 
L 1606 56 
L 191 3500 
L 800 3500 
L 1894 763 
L 2988 3500 
L 3597 3500 
L 2059 -325 
z
" transform="scale(0.015625)"/>
       <path id="DejaVuSans-25" d="M 4653 2053 
Q 4381 2053 4226 1822 
Q 4072 1591 4072 1178 
Q 4072 772 4226 539 
Q 4381 306 4653 306 
Q 4919 306 5073 539 
Q 5228 772 5228 1178 
Q 5228 1588 5073 1820 
Q 4919 2053 4653 2053 
z
M 4653 2450 
Q 5147 2450 5437 2106 
Q 5728 1763 5728 1178 
Q 5728 594 5436 251 
Q 5144 -91 4653 -91 
Q 4153 -91 3862 251 
Q 3572 594 3572 1178 
Q 3572 1766 3864 2108 
Q 4156 2450 4653 2450 
z
M 1428 4353 
Q 1159 4353 1004 4120 
Q 850 3888 850 3481 
Q 850 3069 1003 2837 
Q 1156 2606 1428 2606 
Q 1700 2606 1854 2837 
Q 2009 3069 2009 3481 
Q 2009 3884 1853 4118 
Q 1697 4353 1428 4353 
z
M 4250 4750 
L 4750 4750 
L 1831 -91 
L 1331 -91 
L 4250 4750 
z
M 1428 4750 
Q 1922 4750 2215 4408 
Q 2509 4066 2509 3481 
Q 2509 2891 2217 2550 
Q 1925 2209 1428 2209 
Q 931 2209 642 2551 
Q 353 2894 353 3481 
Q 353 4063 643 4406 
Q 934 4750 1428 4750 
z
" transform="scale(0.015625)"/>
      </defs>
      <use xlink:href="#DejaVuSans-41"/>
      <use xlink:href="#DejaVuSans-63" transform="translate(66.658203 0)"/>
      <use xlink:href="#DejaVuSans-63" transform="translate(121.638672 0)"/>
      <use xlink:href="#DejaVuSans-75" transform="translate(176.619141 0)"/>
      <use xlink:href="#DejaVuSans-72" transform="translate(239.998047 0)"/>
      <use xlink:href="#DejaVuSans-65" transform="translate(278.861328 0)"/>
      <use xlink:href="#DejaVuSans-6e" transform="translate(340.384766 0)"/>
      <use xlink:href="#DejaVuSans-63" transform="translate(403.763672 0)"/>
      <use xlink:href="#DejaVuSans-79" transform="translate(458.744141 0)"/>
      <use xlink:href="#DejaVuSans-20" transform="translate(517.923828 0)"/>
      <use xlink:href="#DejaVuSans-28" transform="translate(549.710938 0)"/>
      <use xlink:href="#DejaVuSans-25" transform="translate(588.724609 0)"/>
      <use xlink:href="#DejaVuSans-29" transform="translate(683.744141 0)"/>
     </g>
    </g>
   </g>
   <g id="line2d_117">
    <path d="M 417.759084 372.888815 
L 420.559909 359.279118 
L 423.360734 354.330138 
L 426.161559 375.363306 
L 428.962384 403.819945 
L 431.763209 397.633719 
L 434.564034 365.465344 
L 437.36486 443.411791 
L 440.165685 370.414325 
L 442.96651 386.498512 
L 445.767335 384.024022 
L 448.56816 385.261267 
L 451.368985 361.753609 
L 454.16981 401.345455 
L 456.970635 390.210248 
L 459.77146 365.465344 
L 462.572285 392.684738 
L 465.37311 398.870964 
L 468.173935 398.870964 
L 470.97476 371.65157 
L 473.775585 402.5827 
L 476.57641 390.210248 
L 479.377236 380.312287 
L 482.178061 386.498512 
L 484.978886 390.210248 
L 487.779711 395.159229 
L 490.580536 401.345455 
L 493.381361 390.210248 
L 496.182186 392.684738 
L 498.983011 387.735758 
L 501.783836 392.684738 
L 504.584661 385.261267 
L 507.385486 390.210248 
L 510.186311 377.837796 
L 512.987136 375.363306 
L 515.787961 381.549532 
L 518.588786 387.735758 
L 521.389612 390.210248 
L 524.190437 397.633719 
L 526.991262 369.17708 
L 529.792087 385.261267 
L 532.592912 376.600551 
L 535.393737 410.006171 
L 538.194562 388.973003 
L 540.995387 376.600551 
L 543.796212 380.312287 
L 546.597037 408.768926 
L 549.397862 386.498512 
L 552.198687 400.108209 
L 554.999512 411.243416 
L 557.800337 438.46281 
L 560.601162 360.516364 
L 563.401988 418.666887 
L 566.202813 452.072507 
L 569.003638 364.228099 
L 571.804463 379.075041 
L 574.605288 490.427107 
L 577.406113 370.414325 
L 580.206938 379.075041 
L 583.007763 418.666887 
L 585.808588 366.70259 
L 588.609413 375.363306 
L 591.410238 386.498512 
L 594.211063 387.735758 
L 597.011888 390.210248 
L 599.812713 422.378623 
L 602.613538 392.684738 
L 605.414364 374.126061 
L 608.215189 380.312287 
L 611.016014 410.006171 
L 613.816839 344.432176 
L 616.617664 395.159229 
L 619.418489 391.447493 
L 622.219314 395.159229 
L 625.020139 381.549532 
L 627.820964 432.276584 
L 630.621789 417.429642 
L 633.422614 380.312287 
L 636.223439 407.53168 
L 639.024264 417.429642 
L 641.825089 388.973003 
L 644.625914 400.108209 
L 647.42674 427.327603 
L 650.227565 412.480661 
L 653.02839 469.393939 
L 655.829215 419.904132 
L 658.63004 413.717906 
L 661.430865 412.480661 
L 664.23169 437.225565 
L 667.032515 360.516364 
L 669.83334 416.192397 
L 672.634165 411.243416 
L 675.43499 432.276584 
L 678.235815 418.666887 
L 681.03664 444.649036 
L 683.837465 523.832727 
L 686.63829 419.904132 
L 689.439116 468.156694 
L 692.239941 386.498512 
L 695.040766 395.159229 
" clip-path="url(#p89128f441c)" style="fill: none; stroke: #1f77b4; stroke-width: 1.5; stroke-linecap: square"/>
   </g>
   <g id="line2d_118">
    <path d="M 417.759084 319.687273 
L 420.559909 359.279118 
L 423.360734 349.381157 
L 426.161559 359.279118 
L 428.962384 320.924518 
L 431.763209 327.110744 
L 434.564034 343.194931 
L 437.36486 319.687273 
L 440.165685 346.906667 
L 442.96651 341.957686 
L 445.767335 319.687273 
L 448.56816 319.687273 
L 451.368985 320.924518 
L 454.16981 319.687273 
L 456.970635 320.924518 
L 459.77146 343.194931 
L 462.572285 319.687273 
L 465.37311 319.687273 
L 468.173935 319.687273 
L 470.97476 328.347989 
L 473.775585 319.687273 
L 476.57641 319.687273 
L 479.377236 320.924518 
L 482.178061 320.924518 
L 484.978886 320.924518 
L 487.779711 319.687273 
L 490.580536 319.687273 
L 493.381361 319.687273 
L 496.182186 319.687273 
L 498.983011 319.687273 
L 501.783836 322.161763 
L 504.584661 322.161763 
L 507.385486 319.687273 
L 510.186311 322.161763 
L 512.987136 319.687273 
L 515.787961 327.110744 
L 518.588786 319.687273 
L 521.389612 320.924518 
L 524.190437 319.687273 
L 526.991262 334.534215 
L 529.792087 320.924518 
L 532.592912 322.161763 
L 535.393737 320.924518 
L 538.194562 320.924518 
L 540.995387 329.585234 
L 543.796212 323.399008 
L 546.597037 319.687273 
L 549.397862 335.77146 
L 552.198687 319.687273 
L 554.999512 327.110744 
L 557.800337 324.636253 
L 560.601162 360.516364 
L 563.401988 334.534215 
L 566.202813 322.161763 
L 569.003638 346.906667 
L 571.804463 340.720441 
L 574.605288 319.687273 
L 577.406113 325.873499 
L 580.206938 328.347989 
L 583.007763 329.585234 
L 585.808588 360.516364 
L 588.609413 341.957686 
L 591.410238 333.29697 
L 594.211063 330.822479 
L 597.011888 324.636253 
L 599.812713 325.873499 
L 602.613538 328.347989 
L 605.414364 362.990854 
L 608.215189 343.194931 
L 611.016014 329.585234 
L 613.816839 407.53168 
L 616.617664 340.720441 
L 619.418489 358.041873 
L 622.219314 324.636253 
L 625.020139 338.24595 
L 627.820964 322.161763 
L 630.621789 325.873499 
L 633.422614 335.77146 
L 636.223439 330.822479 
L 639.024264 330.822479 
L 641.825089 330.822479 
L 644.625914 338.24595 
L 647.42674 323.399008 
L 650.227565 324.636253 
L 653.02839 322.161763 
L 655.829215 323.399008 
L 658.63004 339.483196 
L 661.430865 328.347989 
L 664.23169 323.399008 
L 667.032515 362.990854 
L 669.83334 328.347989 
L 672.634165 332.059725 
L 675.43499 345.669421 
L 678.235815 329.585234 
L 681.03664 319.687273 
L 683.837465 319.687273 
L 686.63829 324.636253 
L 689.439116 322.161763 
L 692.239941 334.534215 
L 695.040766 330.822479 
" clip-path="url(#p89128f441c)" style="fill: none; stroke: #ff7f0e; stroke-width: 1.5; stroke-linecap: square"/>
   </g>
   <g id="patch_21">
    <path d="M 403.895 534.04 
L 403.895 309.48 
" style="fill: none; stroke: #000000; stroke-width: 0.8; stroke-linejoin: miter; stroke-linecap: square"/>
   </g>
   <g id="patch_22">
    <path d="M 708.90485 534.04 
L 708.90485 309.48 
" style="fill: none; stroke: #000000; stroke-width: 0.8; stroke-linejoin: miter; stroke-linecap: square"/>
   </g>
   <g id="patch_23">
    <path d="M 403.895 534.04 
L 708.90485 534.04 
" style="fill: none; stroke: #000000; stroke-width: 0.8; stroke-linejoin: miter; stroke-linecap: square"/>
   </g>
   <g id="patch_24">
    <path d="M 403.895 309.48 
L 708.90485 309.48 
" style="fill: none; stroke: #000000; stroke-width: 0.8; stroke-linejoin: miter; stroke-linecap: square"/>
   </g>
   <g id="text_70">
    <!-- Validation accurency -->
    <g transform="translate(494.11055 303.48) scale(0.12 -0.12)">
     <use xlink:href="#DejaVuSans-56"/>
     <use xlink:href="#DejaVuSans-61" transform="translate(60.658203 0)"/>
     <use xlink:href="#DejaVuSans-6c" transform="translate(121.9375 0)"/>
     <use xlink:href="#DejaVuSans-69" transform="translate(149.720703 0)"/>
     <use xlink:href="#DejaVuSans-64" transform="translate(177.503906 0)"/>
     <use xlink:href="#DejaVuSans-61" transform="translate(240.980469 0)"/>
     <use xlink:href="#DejaVuSans-74" transform="translate(302.259766 0)"/>
     <use xlink:href="#DejaVuSans-69" transform="translate(341.46875 0)"/>
     <use xlink:href="#DejaVuSans-6f" transform="translate(369.251953 0)"/>
     <use xlink:href="#DejaVuSans-6e" transform="translate(430.433594 0)"/>
     <use xlink:href="#DejaVuSans-20" transform="translate(493.8125 0)"/>
     <use xlink:href="#DejaVuSans-61" transform="translate(525.599609 0)"/>
     <use xlink:href="#DejaVuSans-63" transform="translate(586.878906 0)"/>
     <use xlink:href="#DejaVuSans-63" transform="translate(641.859375 0)"/>
     <use xlink:href="#DejaVuSans-75" transform="translate(696.839844 0)"/>
     <use xlink:href="#DejaVuSans-72" transform="translate(760.21875 0)"/>
     <use xlink:href="#DejaVuSans-65" transform="translate(799.082031 0)"/>
     <use xlink:href="#DejaVuSans-6e" transform="translate(860.605469 0)"/>
     <use xlink:href="#DejaVuSans-63" transform="translate(923.984375 0)"/>
     <use xlink:href="#DejaVuSans-79" transform="translate(978.964844 0)"/>
    </g>
   </g>
   <g id="legend_4">
    <g id="patch_25">
     <path d="M 410.895 529.04 
L 486.249687 529.04 
Q 488.249687 529.04 488.249687 527.04 
L 488.249687 498.1275 
Q 488.249687 496.1275 486.249687 496.1275 
L 410.895 496.1275 
Q 408.895 496.1275 408.895 498.1275 
L 408.895 527.04 
Q 408.895 529.04 410.895 529.04 
z
" style="fill: #ffffff; opacity: 0.8; stroke: #cccccc; stroke-linejoin: miter"/>
    </g>
    <g id="line2d_119">
     <path d="M 412.895 504.225937 
L 422.895 504.225937 
L 432.895 504.225937 
" style="fill: none; stroke: #1f77b4; stroke-width: 1.5; stroke-linecap: square"/>
    </g>
    <g id="text_71">
     <!-- acc_real -->
     <g transform="translate(440.895 507.725937) scale(0.1 -0.1)">
      <use xlink:href="#DejaVuSans-61"/>
      <use xlink:href="#DejaVuSans-63" transform="translate(61.279297 0)"/>
      <use xlink:href="#DejaVuSans-63" transform="translate(116.259766 0)"/>
      <use xlink:href="#DejaVuSans-5f" transform="translate(171.240234 0)"/>
      <use xlink:href="#DejaVuSans-72" transform="translate(221.240234 0)"/>
      <use xlink:href="#DejaVuSans-65" transform="translate(260.103516 0)"/>
      <use xlink:href="#DejaVuSans-61" transform="translate(321.626953 0)"/>
      <use xlink:href="#DejaVuSans-6c" transform="translate(382.90625 0)"/>
     </g>
    </g>
    <g id="line2d_120">
     <path d="M 412.895 519.182187 
L 422.895 519.182187 
L 432.895 519.182187 
" style="fill: none; stroke: #ff7f0e; stroke-width: 1.5; stroke-linecap: square"/>
    </g>
    <g id="text_72">
     <!-- acc_fake -->
     <g transform="translate(440.895 522.682187) scale(0.1 -0.1)">
      <use xlink:href="#DejaVuSans-61"/>
      <use xlink:href="#DejaVuSans-63" transform="translate(61.279297 0)"/>
      <use xlink:href="#DejaVuSans-63" transform="translate(116.259766 0)"/>
      <use xlink:href="#DejaVuSans-5f" transform="translate(171.240234 0)"/>
      <use xlink:href="#DejaVuSans-66" transform="translate(221.240234 0)"/>
      <use xlink:href="#DejaVuSans-61" transform="translate(256.445312 0)"/>
      <use xlink:href="#DejaVuSans-6b" transform="translate(317.724609 0)"/>
      <use xlink:href="#DejaVuSans-65" transform="translate(372.009766 0)"/>
     </g>
    </g>
   </g>
  </g>
 </g>
 <defs>
  <clipPath id="p936fd7bc5f">
   <rect x="47.72" y="26.88" width="305.00985" height="224.56"/>
  </clipPath>
  <clipPath id="p51b1d09d0d">
   <rect x="403.895" y="26.88" width="305.00985" height="224.56"/>
  </clipPath>
  <clipPath id="p7cf5c8cfeb">
   <rect x="47.72" y="309.48" width="305.00985" height="224.56"/>
  </clipPath>
  <clipPath id="p89128f441c">
   <rect x="403.895" y="309.48" width="305.00985" height="224.56"/>
  </clipPath>
 </defs>
</svg>
